<?xml version="1.0" encoding="utf-8"?>
<!-- Generator: Adobe Illustrator 21.0.0, SVG Export Plug-In . SVG Version: 6.00 Build 0)  -->
<svg version="1.1" id="Layer_1" xmlns="http://www.w3.org/2000/svg" xmlns:xlink="http://www.w3.org/1999/xlink" x="0px" y="0px"
	 viewBox="0 0 515 76" style="enable-background:new 0 0 515 76;" xml:space="preserve">
<style type="text/css">
	.st0{fill:#27A84C;}
	.st1{fill-rule:evenodd;clip-rule:evenodd;fill:#E83426;}
	.st2{opacity:0.8;}
	.st3{clip-path:url(#SVGID_2_);fill-rule:evenodd;clip-rule:evenodd;fill:#9C2B21;}
	.st4{fill:#FFFFFF;}
	.st5{fill-rule:evenodd;clip-rule:evenodd;fill:#91C54E;}
	.st6{clip-path:url(#SVGID_4_);fill:url(#SVGID_5_);}
	.st7{fill-rule:evenodd;clip-rule:evenodd;fill:#FFFFFF;}
	.st8{fill:none;stroke:#FFFFFF;stroke-width:0.263;stroke-linecap:round;stroke-linejoin:round;stroke-miterlimit:10;}
	.st9{clip-path:url(#SVGID_7_);fill:url(#SVGID_8_);}
	.st10{fill:none;stroke:#FFFFFF;stroke-width:0.163;stroke-miterlimit:10;}
	.st11{fill:#00A651;}
	.st12{fill:#ED1C24;}
	.st13{fill:#2AABE2;}
	.st14{fill-rule:evenodd;clip-rule:evenodd;fill:#0D5DA9;}
	.st15{fill:#0D5DA9;}
	.st16{fill:#057DC1;}
</style>
<g>
	<path class="st0" d="M289.6,53.1c-0.7-0.8-1.6-1.3-2.8-1.3c-2.3,0-4.5,1.8-5.1,4.1c-0.3,1.2-0.1,2.2,0.5,3.1
		c0.7,0.9,1.7,1.3,2.9,1.3c2.3,0,4.6-1.9,5.1-4.1C290.5,55.1,290.3,54,289.6,53.1 M288.3,56c-0.3,1.3-1.6,2.4-3,2.4
		c-0.6,0-1.1-0.2-1.4-0.6c-0.3-0.4-0.4-0.9-0.2-1.5c0.3-1.3,1.7-2.5,3-2.5c0.6,0,1.1,0.2,1.4,0.6C288.3,54.8,288.4,55.4,288.3,56
		 M262,51.8c-2.3,0-4.5,1.8-5.1,4.1c-0.3,1.2-0.1,2.2,0.5,3.1c0.6,0.9,1.7,1.3,2.9,1.3c2.3,0,4.6-1.9,5.1-4.1c0.2-1.2,0-2.3-0.6-3.1
		C264.1,52.3,263.1,51.8,262,51.8 M263.5,56c-0.3,1.3-1.6,2.4-3,2.4c-0.6,0-1.1-0.2-1.4-0.6c-0.3-0.4-0.4-0.9-0.2-1.5
		c0.3-1.3,1.7-2.5,3-2.5c0.6,0,1.1,0.2,1.4,0.6C263.5,54.8,263.6,55.4,263.5,56"/>
	<path class="st1" d="M276.7,19.7c5.4,0,11.9-0.9,16.1,3.6c12.6,13.4-4.3,30.3-18.7,30.3c-14.3,0.1-28.3-16.1-13.4-30.3
		C265.4,18.8,271.8,19.7,276.7,19.7"/>
	<g class="st2">
		<g>
			<defs>
				<rect id="SVGID_1_" x="254.4" y="28.3" width="41.9" height="25.3"/>
			</defs>
			<clipPath id="SVGID_2_">
				<use xlink:href="#SVGID_1_"  style="overflow:visible;"/>
			</clipPath>
			<path class="st3" d="M275.5,50.8c-11.7,0-23.2-10.8-18.8-22.5c-7.6,12.8,4.8,25.3,17.5,25.3c9,0,19-6.7,22.1-14.9
				C292.2,45.6,283.4,50.8,275.5,50.8"/>
		</g>
	</g>
	<path class="st4" d="M281.8,41.8c-1.4,0.8-2.6,1-2.8,0.1c-0.3-1.4,1.2-3,3-2.8C281.8,40.1,281.8,41,281.8,41.8 M286,36.7
		c-0.1,0.2-0.2,0.5-0.3,0.8c-0.1,0.2-0.2,0.8-0.4,1.6c-0.6,0.6-1.4,1.3-2.2,1.9c0.1-5.2,2.3-11.9,2.5-12.8c0.3-1.1,0.4-1.5,0.1-1.7
		c-0.2-0.1-0.5,0.1-0.7,0.6c-0.4,0.7-2.1,6.1-2.8,10.8l0,0.1c-3.6-0.7-5.4,3.2-4.1,4.8c0.7,0.9,2.3,1.1,4,0.1c0.2,1.1,0.6,1.8,1.3,2
		c0.2,0,0.3,0,0.2-0.1c-0.3-0.8-0.4-1.6-0.5-2.6c0.7-0.5,1.4-1.2,2-2c-0.2,1.2-0.4,2.5-0.2,3c0.5,1,1.1,0.9,1.1,0.6c0.1-4.6,1-6,1-7
		C286.9,36.1,286.2,36.5,286,36.7"/>
	<path class="st4" d="M272.1,33.8c-0.2,0.7-0.9,1-1.6,0.8c-0.6-0.2-0.9-1-0.7-1.6c0.2-0.7,0.9-1,1.6-0.8
		C272.1,32.4,272.4,33.1,272.1,33.8"/>
	<path class="st4" d="M269.3,36.7c0.2-0.3,0.9-0.6,0.9,0.2c0,1-0.8,2.3-1,7c0,0.4-0.7,0.4-1.1-0.6c-0.5-1,0.7-5.3,0.9-5.8
		C269.1,37.2,269.2,37,269.3,36.7"/>
	<path class="st4" d="M288.8,33.8c-0.2,0.7-0.9,1-1.6,0.8c-0.6-0.2-0.9-1-0.7-1.6c0.2-0.7,0.9-1,1.6-0.8
		C288.7,32.4,289,33.1,288.8,33.8"/>
	<path class="st4" d="M279.6,44.9c-3.7,4.4-4.7-2.3-4.4-6.3l-2.6,5.8c-0.4,0.8-0.7,1-1.2,0.9c-0.4-0.1-0.7-0.8-0.5-1.7
		c0,0,0.6-3.6,0.9-4.8c0.4-1.7,1-3.8,1-3.8s0.1-0.5,0.5-0.4c0.4,0.1,0.4,0.4,0.4,0.7c0,0.3-0.5,2.8-0.5,2.8l-0.6,3.1l1.2-2.7
		c1.9-3.6,2.7-0.9,2.6,0.2c0,3.4,0.2,8.6,2.8,6.3c0.1-0.1,0.1-0.1,0.2-0.2C279.6,44.7,279.7,44.7,279.6,44.9"/>
	<path class="st4" d="M267.9,30c-0.1,0.4-1.5,10.3-3.1,12.6c-0.5,0.6-0.7,0.3-0.7-0.2l-0.1-4.8l-0.1-2.3c0-1.3-1.4-1.1-1.4,0l0,5.4
		c0,4.2,1.6,4.1,1.6,4.1c2.4,0,3.4-6.2,4.4-10.5c0,0,1-4.7,1-5.3C269.4,28.6,267.9,29.5,267.9,30"/>
	<path class="st5" d="M276.4,21.9c1,0.8,4.5-1.2,5-1.9c0.7-0.7,0.9-1.3,0.9-2.3c0.8,1.1,0.8,1.8,0.4,2.8c-0.9,2.8-4.2,2.5-1.7,3.3
		c0.9,0.1,1.9,0,2.8,0.2c0.7-0.1,1.1-0.3,1.7-0.8c-0.3,0.6-0.6,1.1-1.1,1.3c-0.9,0.2-1.3,0.5-2.1,0.8c-1.4,0.4-2.6,0.2-3.8-0.3
		c-1.1,0.3-0.6-0.2-0.2,0.7c0.1,0.5,0.2,1,0.3,1.5c0.2,0.5,0.5,0.8,1.1,1.2c-0.6-0.1-1.5-0.3-2-0.7c-3-2.4-1.4-3-4.2-1
		c-1.4,1-4,2-5.2,0.6c1.2,0.1,1.8,0,3.2-1.2c0.9-0.9,1.3-1.2,0.9-1.3c-1.1-0.2-1.9-0.5-3.2-0.9c-1.9-0.7-3.7-3.4-1.3-5.7
		c-1.4,3.6,0.5,4,4.4,3.8c-0.7-1.2-0.5-2.8,0.1-4c0.2,1.5,1.1,3.1,2.5,3.7c0.9-1.3,0.9-3.9,0.5-5.4c-0.3-1.1,1.3-1,1.5-0.3
		C277.5,17.9,276.1,20,276.4,21.9"/>
	<g>
		<defs>
			<path id="SVGID_3_" d="M184.7,23.3c-2.1-0.4-19.7-3.1-31.1,10.7l5.2,20.1c0,0,8.3-13.3,26.3-10v-0.1c2.1,0.4,19.4,3.4,30.8-10.4
				l-5.2-20.2C210.7,13.4,202.7,26.5,184.7,23.3"/>
		</defs>
		<clipPath id="SVGID_4_">
			<use xlink:href="#SVGID_3_"  style="overflow:visible;"/>
		</clipPath>
		
			<linearGradient id="SVGID_5_" gradientUnits="userSpaceOnUse" x1="130.2636" y1="652.8876" x2="132.4517" y2="652.8876" gradientTransform="matrix(0 9.1394 9.1394 0 -5782.1802 -1167.311)">
			<stop  offset="0" style="stop-color:#00A651"/>
			<stop  offset="0.6196" style="stop-color:#005A27"/>
			<stop  offset="1" style="stop-color:#00A651"/>
		</linearGradient>
		<rect x="153.7" y="13.4" class="st6" width="62.3" height="40.7"/>
	</g>
	<path class="st7" d="M214.3,18.9l-0.4-0.9l-8.1,9.8c0,0,0.6,0.1,0.9,0.2L214.3,18.9z"/>
	<path class="st7" d="M216.2,19.5l-0.4-0.9l-8.1,9.8c0,0,0.4,0.2,0.7,0.5L216.2,19.5z"/>
	<path class="st7" d="M217.6,20.8l-0.4-0.9l-8.1,9.7c0,0,0.3,0.4,0.5,0.8L217.6,20.8z"/>
	<path class="st4" d="M168,24.6l6.7,18.3H172l-2.3-6.3h-5.9l-2.3,6.3h-2.7l6.4-17.4L168,24.6z M168.8,34.1l-2-5.5l-2,5.5H168.8z"/>
	<path class="st8" d="M168,24.6l6.7,18.3H172l-2.3-6.3h-5.9l-2.3,6.3h-2.7l6.4-17.4L168,24.6z M168.8,34.1l-2-5.5l-2,5.5H168.8z"/>
	<path class="st4" d="M181.2,43.1c-1.7,0-3.1-0.5-4.2-1.6c-1-1-1.6-2.3-1.6-3.9v-8.3h2.6v8.2c0,0.8,0.3,1.5,0.9,2.1
		c0.6,0.6,1.4,0.9,2.3,0.9c0.8,0,1.5-0.3,2.1-0.9c0.6-0.6,0.9-1.3,0.9-2.1v-8.2h2.6v8.3c0,1.6-0.6,2.9-1.6,3.9
		C184.2,42.6,182.8,43.1,181.2,43.1"/>
	<path class="st8" d="M181.2,43.1c-1.7,0-3.1-0.5-4.2-1.6c-1-1-1.6-2.3-1.6-3.9v-8.3h2.6v8.2c0,0.8,0.3,1.5,0.9,2.1
		c0.6,0.6,1.4,0.9,2.3,0.9c0.8,0,1.5-0.3,2.1-0.9c0.6-0.6,0.9-1.3,0.9-2.1v-8.2h2.6v8.3c0,1.6-0.6,2.9-1.6,3.9
		C184.2,42.6,182.8,43.1,181.2,43.1z"/>
	<polygon class="st4" points="189.6,29.3 189.6,24.1 192.1,24.1 192.1,29.3 194.6,29.3 194.6,31.9 192.1,31.9 192.1,42.9 
		189.6,42.9 189.6,31.9 187.1,31.9 187.1,29.3 	"/>
	<polygon class="st8" points="189.6,29.3 189.6,24.1 192.1,24.1 192.1,29.3 194.6,29.3 194.6,31.9 192.1,31.9 192.1,42.9 
		189.6,42.9 189.6,31.9 187.1,31.9 187.1,29.3 	"/>
	<path class="st4" d="M202.2,28.2c2.1,0,3.9,0.7,5.3,2.2c1.5,1.5,2.2,3.2,2.2,5.3c0,2.1-0.7,3.8-2.2,5.3c-1.5,1.5-3.2,2.2-5.3,2.2
		c-2.1,0-3.8-0.7-5.3-2.2c-1.5-1.5-2.2-3.3-2.2-5.3c0-2.1,0.7-3.9,2.2-5.3C198.3,28.9,200.1,28.2,202.2,28.2 M198.7,32.3
		c-1,1-1.4,2.1-1.4,3.5c0,1.3,0.5,2.5,1.4,3.5c1,1,2.1,1.4,3.5,1.4c1.4,0,2.5-0.5,3.5-1.4c1-1,1.4-2.1,1.4-3.5
		c0-1.4-0.5-2.5-1.4-3.5c-1-1-2.1-1.4-3.5-1.4S199.7,31.3,198.7,32.3"/>
	<path class="st8" d="M202.2,28.2c2.1,0,3.9,0.7,5.3,2.2c1.5,1.5,2.2,3.2,2.2,5.3c0,2.1-0.7,3.8-2.2,5.3c-1.5,1.5-3.2,2.2-5.3,2.2
		c-2.1,0-3.8-0.7-5.3-2.2c-1.5-1.5-2.2-3.3-2.2-5.3c0-2.1,0.7-3.9,2.2-5.3C198.3,28.9,200.1,28.2,202.2,28.2z M198.7,32.3
		c-1,1-1.4,2.1-1.4,3.5c0,1.3,0.5,2.5,1.4,3.5c1,1,2.1,1.4,3.5,1.4c1.4,0,2.5-0.5,3.5-1.4c1-1,1.4-2.1,1.4-3.5
		c0-1.4-0.5-2.5-1.4-3.5c-1-1-2.1-1.4-3.5-1.4S199.7,31.3,198.7,32.3z"/>
	<g>
		<defs>
			<path id="SVGID_6_" d="M188.3,44c-5.1-0.6-10.6-1.5-18.1,0.9c-7.5,2.5-11.4,9.1-11.4,9.1l2.7,9.9c0,0,4.5-6.7,11.9-9.4
				c7.5-2.7,11.7-1,16.8-0.4c4.8,0.5,18-0.6,28.5-10.8l-3-10.3C209,43.6,193.1,44.6,188.3,44"/>
		</defs>
		<clipPath id="SVGID_7_">
			<use xlink:href="#SVGID_6_"  style="overflow:visible;"/>
		</clipPath>
		
			<linearGradient id="SVGID_8_" gradientUnits="userSpaceOnUse" x1="34.9637" y1="666.2369" x2="37.1518" y2="666.2369" gradientTransform="matrix(0.5681 3.5978 3.5978 -0.5681 -2228.2371 299.6756)">
			<stop  offset="0" style="stop-color:#ED1C24"/>
			<stop  offset="4.294480e-02" style="stop-color:#ED1C24"/>
			<stop  offset="0.5031" style="stop-color:#94070A"/>
			<stop  offset="0.9877" style="stop-color:#94070A"/>
			<stop  offset="1" style="stop-color:#94070A"/>
		</linearGradient>
		<polygon class="st9" points="217.3,23.8 223.6,63.2 160.3,73.2 154.1,33.7 		"/>
	</g>
	<polygon class="st4" points="168.5,48.6 168.6,48.9 166.7,50 167.8,52.1 169.8,51 170,51.3 168,52.4 169.4,54.9 169.1,55 
		166.2,49.8 	"/>
	<polygon class="st10" points="168.5,48.6 168.6,48.9 166.7,50 167.8,52.1 169.8,51 170,51.3 168,52.4 169.4,54.9 169.1,55 
		166.2,49.8 	"/>
	<path class="st4" d="M173,50.9C173,51,173,51,173,50.9l-1.1,0.3l0.6,1.9l-0.3,0.1l-1.8-5.6l1.5-0.5c0.5-0.1,0.9,0,1.3,0.2
		c0.5,0.2,0.8,0.6,1,1.1c0.2,0.5,0.1,1-0.1,1.5c-0.2,0.3-0.4,0.6-0.7,0.8l1.9,1.6l-0.4,0.1L173,50.9z M170.9,47.9l1,3l1-0.3
		c0.4-0.1,0.7-0.4,0.9-0.8c0.2-0.4,0.2-0.8,0.1-1.2c-0.1-0.4-0.4-0.7-0.8-0.9c-0.4-0.2-0.8-0.2-1.2-0.1L170.9,47.9z"/>
	<path class="st10" d="M173,50.9C173,51,173,51,173,50.9l-1.1,0.3l0.6,1.9l-0.3,0.1l-1.8-5.6l1.5-0.5c0.5-0.1,0.9,0,1.3,0.2
		c0.5,0.2,0.8,0.6,1,1.1c0.2,0.5,0.1,1-0.1,1.5c-0.2,0.3-0.4,0.6-0.7,0.8l1.9,1.6l-0.4,0.1L173,50.9z M170.9,47.9l1,3l1-0.3
		c0.4-0.1,0.7-0.4,0.9-0.8c0.2-0.4,0.2-0.8,0.1-1.2c-0.1-0.4-0.4-0.7-0.8-0.9c-0.4-0.2-0.8-0.2-1.2-0.1L170.9,47.9z"/>
	<polygon class="st4" points="178.8,45.9 178.8,46.2 176.2,46.5 176.5,49 179.1,48.7 179.1,49 176.5,49.3 176.8,51.8 179.4,51.5 
		179.4,51.8 176.5,52.1 175.8,46.2 	"/>
	<polygon class="st10" points="178.8,45.9 178.8,46.2 176.2,46.5 176.5,49 179.1,48.7 179.1,49 176.5,49.3 176.8,51.8 179.4,51.5 
		179.4,51.8 176.5,52.1 175.8,46.2 	"/>
	<path class="st4" d="M185.5,51.2l0.2,0.2c-0.6,0.5-1.3,0.7-2.1,0.6c-0.8-0.1-1.5-0.4-2.1-1c-0.5-0.6-0.8-1.4-0.7-2.2
		c0.1-0.8,0.4-1.5,1-2.1c0.6-0.5,1.4-0.8,2.2-0.7c0.8,0.1,1.4,0.4,2,0.9l-0.3,0.2c-0.5-0.5-1-0.8-1.7-0.8c-0.7-0.1-1.4,0.2-2,0.6
		c-0.6,0.5-0.9,1.1-0.9,1.8c-0.1,0.7,0.2,1.4,0.6,2c0.5,0.6,1.1,0.9,1.8,0.9C184.3,51.7,184.9,51.6,185.5,51.2"/>
	<path class="st10" d="M185.5,51.2l0.2,0.2c-0.6,0.5-1.3,0.7-2.1,0.6c-0.8-0.1-1.5-0.4-2.1-1c-0.5-0.6-0.8-1.4-0.7-2.2
		c0.1-0.8,0.4-1.5,1-2.1c0.6-0.5,1.4-0.8,2.2-0.7c0.8,0.1,1.4,0.4,2,0.9l-0.3,0.2c-0.5-0.5-1-0.8-1.7-0.8c-0.7-0.1-1.4,0.2-2,0.6
		c-0.6,0.5-0.9,1.1-0.9,1.8c-0.1,0.7,0.2,1.4,0.6,2c0.5,0.6,1.1,0.9,1.8,0.9C184.3,51.7,184.9,51.6,185.5,51.2z"/>
	<path class="st4" d="M190.9,46.6l0.3,0l-0.1,4.2c-0.1,0.5-0.3,0.8-0.6,1.1c-0.4,0.4-0.8,0.5-1.4,0.5c-0.5,0-1-0.2-1.4-0.6
		c-0.4-0.4-0.5-0.8-0.5-1.4l0.1-4l0.3,0l-0.1,4c0,0.4,0.1,0.8,0.4,1.1c0.3,0.3,0.7,0.5,1.1,0.5c0.4,0,0.8-0.1,1.1-0.4
		c0.3-0.3,0.5-0.7,0.5-1.1L190.9,46.6z"/>
	<path class="st10" d="M190.9,46.6l0.3,0l-0.1,4.2c-0.1,0.5-0.3,0.8-0.6,1.1c-0.4,0.4-0.8,0.5-1.4,0.5c-0.5,0-1-0.2-1.4-0.6
		c-0.4-0.4-0.5-0.8-0.5-1.4l0.1-4l0.3,0l-0.1,4c0,0.4,0.1,0.8,0.4,1.1c0.3,0.3,0.7,0.5,1.1,0.5c0.4,0,0.8-0.1,1.1-0.4
		c0.3-0.3,0.5-0.7,0.5-1.1L190.9,46.6z"/>
	<polygon class="st4" points="195.5,46.2 195.6,46.5 192.9,46.7 193.1,49.1 195.7,49 195.8,49.3 193.1,49.5 193.3,51.9 195.9,51.7 
		196,52.1 193,52.3 192.6,46.4 	"/>
	<polygon class="st10" points="195.5,46.2 195.6,46.5 192.9,46.7 193.1,49.1 195.7,49 195.8,49.3 193.1,49.5 193.3,51.9 195.9,51.7 
		196,52.1 193,52.3 192.6,46.4 	"/>
	<polygon class="st4" points="197.3,46 202,51 201.2,45.5 201.6,45.5 202.4,51.3 201.9,51.4 197.3,46.6 198.1,51.9 197.7,52 
		196.9,46.1 	"/>
	<polygon class="st10" points="197.3,46 202,51 201.2,45.5 201.6,45.5 202.4,51.3 201.9,51.4 197.3,46.6 198.1,51.9 197.7,52 
		196.9,46.1 	"/>
	<polygon class="st4" points="204.2,45 205.9,50.3 205.6,50.4 203.9,45.1 202.5,45.6 202.4,45.3 205.5,44.2 205.6,44.5 	"/>
	<polygon class="st10" points="204.2,45 205.9,50.3 205.6,50.4 203.9,45.1 202.5,45.6 202.4,45.3 205.5,44.2 205.6,44.5 	"/>
	<polygon class="st4" points="208.9,42.4 209,42.7 206.7,44 207.9,46.1 210.2,44.9 210.4,45.2 208.1,46.4 209.3,48.6 211.6,47.3 
		211.7,47.6 209.1,49 206.3,43.9 	"/>
	<polygon class="st10" points="208.9,42.4 209,42.7 206.7,44 207.9,46.1 210.2,44.9 210.4,45.2 208.1,46.4 209.3,48.6 211.6,47.3 
		211.7,47.6 209.1,49 206.3,43.9 	"/>
	<path class="st4" d="M357.3,22.7c-1.8,0-3,0.8-3.7,1.8c-1.2-1.1-3.1-2-6.1-2c-2.4,0-4.3,0.5-5.9,1.5c-1.2,0.7-2.4,2.2-2.4,4.2
		c0,0.3,0,0.7,0.1,1c0,0,0,0.1,0,0.2c0,0,0,0.1,0,0.1c0.1,0.5,0.4,0.9,0.6,1.2c0,0,0,0.1,0.1,0.1c0.2,0.3,0.5,0.5,0.8,0.7
		c0,0,0.1,0,0.1,0.1c0.5,0.3,1.2,0.4,1.8,0.4c0,0,0.1,0,0.1,0c0.1,0,0.3,0,0.5,0c-0.8,0.4-1.5,0.7-2,1.1l0,0
		c-3.4,2.2-4.1,4.9-4.1,6.8c0,0.3,0,0.5,0.1,0.8c-0.3,0-0.6-0.1-1-0.1l-2.4,0c-5,0-9.1,4.1-9.1,9.1c0,5,4.1,9.1,9.1,9.1h30.8
		c0,0,0.1,0,0.1,0c0.1,0,0.2,0,0.3,0c1.1,0,3.6,0,4.1,0h34.2c2.3,0,4.5-0.9,6.2-2.4c1.7-1.5,2.7-3.6,2.9-5.9c0-0.1,0-0.1,0-0.2V49
		c0-0.1,0-0.1,0-0.2c-0.2-2.3-1.2-4.4-2.9-5.9c-1.7-1.6-3.9-2.4-6.2-2.4h-2.9c1-1.8,1.5-3.9,1.5-6.2c0-3.5-1.1-6.3-3.3-8.5
		c-2.2-2.2-4.9-3.3-8.2-3.3c-1.6,0-3.1,0.3-4.4,0.8c0,0,0,0,0,0c-0.3-0.5-0.8-0.8-1.3-0.9c-0.8-0.2-1.6-0.3-2.3-0.3
		c-1.4,0-2.6,0.3-3.5,0.8v-2.8c0-1-0.4-1.7-0.8-2c0,0-0.1-0.1-0.1-0.1c-0.4-0.4-1-0.6-1.6-0.6c-0.1,0-0.3,0-0.4,0
		c-0.1,0-0.2,0-0.3,0.1c-3.4,1.2-4.6,4.2-4.7,6.2c-0.8-0.6-1.8-1-3-1H357.3z"/>
	<path class="st11" d="M403.4,42.6h-3.3c0,0-0.1,0-0.2,0c-2.6,0-2.7,1.2-2.7,1.2l0,0v0h6.2c3.2,0,5.8,2.6,5.8,5.8
		c0,3.2-2.6,5.8-5.8,5.8H372h0c-2.2,0-2.6,0.9-2.7,1.2v0.1h34.2c3.7,0,6.7-2.8,7-6.4V49C410.1,45.4,407.1,42.6,403.4,42.6"/>
	<path class="st12" d="M328.2,49.6c0-3.2,2.6-5.8,5.8-5.8h5.1v0l0,0c0,0-0.1-1.2-2.7-1.2c-0.1,0-0.1,0-0.2,0H334
		c-3.9,0-7.1,3.2-7.1,7.1c0,3.9,3.2,7.1,7.1,7.1h30.8c0.1,0,0.2,0,0.4,0c2.5,0,2.7-1.1,2.7-1.2v0H334
		C330.8,55.4,328.2,52.8,328.2,49.6"/>
	<path class="st11" d="M340.5,53.2h1c0.1,0,0.2-0.1,0.2-0.2v-6.5c0-0.1-0.1-0.2-0.2-0.2h-0.9c-0.1,0-0.1,0-0.2,0.1l-2.4,2.9
		l-2.5-2.9c0-0.1-0.1-0.1-0.2-0.1h-0.9c-0.1,0-0.2,0.1-0.2,0.2v6.5c0,0.1,0.1,0.2,0.2,0.2h1c0.1,0,0.2-0.1,0.2-0.2v-4.2l2,2.4
		c0,0.1,0.1,0.1,0.2,0.1h0.2c0.1,0,0.1,0,0.2-0.1l2-2.4v4.2C340.2,53.1,340.3,53.2,340.5,53.2"/>
	<path class="st11" d="M351.7,47.6c0.1,0,0.2-0.1,0.2-0.2v-0.9c0-0.1-0.1-0.2-0.2-0.2h-5c-0.1,0-0.2,0.1-0.2,0.2v6.5
		c0,0.1,0.1,0.2,0.2,0.2h5c0.1,0,0.2-0.1,0.2-0.2v-0.9c0-0.1-0.1-0.2-0.2-0.2h-3.8v-1.5h1.5c0.1,0,0.2-0.1,0.2-0.2v-0.9
		c0-0.1-0.1-0.2-0.2-0.2h-1.5v-1.3H351.7z"/>
	<path class="st11" d="M380,46.2h-1.1c-0.1,0-0.2,0.1-0.2,0.1l-2.7,6.5c0,0.1,0,0.2,0,0.2c0,0.1,0.1,0.1,0.2,0.1h1
		c0.1,0,0.2-0.1,0.2-0.2l0.5-1.3h2.9l0.5,1.3c0,0.1,0.1,0.2,0.2,0.2h1c0.1,0,0.2,0,0.2-0.1c0-0.1,0.1-0.1,0-0.2l-2.6-6.5
		C380.2,46.3,380.1,46.2,380,46.2 M378.4,50.5l1-2.4l1,2.4H378.4z"/>
	<path class="st11" d="M387,46.2c-0.1,0-0.2,0.1-0.2,0.2v6.5c0,0.1,0.1,0.2,0.2,0.2h2.6c2.2,0,3.6-1.4,3.6-3.5
		c0-2.1-1.4-3.5-3.6-3.5H387z M391.7,49.7c0,1.3-0.8,2.1-2.1,2.1h-1.4v-4.3h1.4C390.9,47.6,391.7,48.4,391.7,49.7"/>
	<path class="st11" d="M400.5,53.3c2,0,3.6-1.5,3.6-3.6c0-2-1.5-3.6-3.6-3.6c-2,0-3.6,1.5-3.6,3.6C396.9,51.7,398.4,53.3,400.5,53.3
		 M400.5,47.5c1.2,0,2.1,0.9,2.1,2.2c0,1.2-0.9,2.2-2.1,2.2c-1.2,0-2.1-0.9-2.1-2.2C398.4,48.5,399.2,47.5,400.5,47.5"/>
	<path class="st11" d="M362,48.5c0-1.7-1.4-2.3-2.7-2.3h-2.8c-0.1,0-0.2,0.1-0.2,0.2v6.5c0,0.1,0.1,0.2,0.2,0.2h1
		c0.1,0,0.2-0.1,0.2-0.2v-2.1h0.7c0,0,0,0,0,0l0.6,0.6l0.1,0.1l0,0l1.4,1.5c0.1,0.1,0.1,0.1,0.3,0.1c0,0,0,0,0.1,0l1.2,0l0,0
		c0.1-0.1,0.1-0.3,0-0.3l-2-2.1C361.2,50.5,362,49.6,362,48.5 M359.4,49.5h-1.7v-2h1.7c0.7,0,1.1,0.4,1.1,1
		C360.4,49.2,359.9,49.5,359.4,49.5"/>
	<path class="st11" d="M366,49.7c0,2,1.5,3.6,3.6,3.6c1.1,0,2-0.4,2.7-1.2c0,0,0-0.1,0-0.1c0,0,0,0,0,0l0,0l-0.8-0.8
		c-0.1,0-0.1-0.1-0.2-0.1l0-0.1l-0.1,0.1c-0.4,0.5-1,0.7-1.6,0.7c-1.2,0-2.1-0.9-2.1-2.2c0-1.2,0.9-2.2,2.1-2.2
		c0.6,0,1.1,0.2,1.5,0.6l0,0l0,0c0.1,0,0.1,0,0.2,0l0,0l0.8-0.8c0,0,0.1-0.1,0.1-0.1c0-0.1,0-0.1-0.1-0.1c-0.7-0.7-1.6-1.1-2.6-1.1
		C367.6,46.1,366,47.7,366,49.7"/>
	<path class="st12" d="M340.8,43c0.9,0.9,2,1.3,3.3,1.3c1.2,0,2.4-0.4,3.7-1.1c0.6-0.4,1.4-0.9,2.3-1.6c0.1,0.6,0.3,1.1,0.6,1.5
		c0.4,0.5,0.8,0.8,1.4,1c0.2,0.1,0.5,0.1,0.7,0.1l0,0c1.2,0,2.1-0.8,2.5-2c0.1-0.1,0-0.3-0.2-0.4c-0.6-0.3-1-0.8-1.1-1.5
		c0-0.3-0.1-0.6-0.1-1v-8c0-1.8-0.3-3.2-0.8-4.1c-1-1.8-2.9-2.7-5.7-2.7c-2,0-3.6,0.4-4.8,1.1c-0.7,0.4-1.5,1.3-1.5,2.5
		c0,0.2,0,0.4,0.1,0.6c0,0,0,0,0,0.1c0.1,0.2,0.2,0.4,0.3,0.6c0.1,0.1,0.2,0.2,0.4,0.3c0.2,0.1,0.6,0.2,0.9,0.2
		c0.3,0,0.8-0.1,1.1-0.3c0,0,0,0,0.1,0c0.1-0.1,0.2-0.2,0.2-0.4l0,0c0-0.2,0-0.3,0-0.5c0-0.6,0.1-1.2,0.6-1.7
		c0.1-0.1,0.3-0.2,0.5-0.3c0.2-0.1,0.3-0.2,0.5-0.2c0.4-0.2,0.9-0.2,1.3-0.2c1.3,0,2.2,0.4,2.6,1.2c0.3,0.5,0.4,1.4,0.4,2.7v1.5
		c-3.7,1.3-6.2,2.4-7.4,3.2c-2.1,1.3-3.1,3-3.1,5.1C339.4,41.1,339.8,42.2,340.8,43 M346.4,34.8c0.9-0.5,2.1-1,3.4-1.5V39
		c0,0.6-0.4,1.2-1.1,1.6c-0.8,0.5-1.6,0.7-2.4,0.7c-0.6,0-1.1-0.2-1.6-0.5c-0.7-0.5-1.1-1.3-1.1-2.4C343.6,37.1,344.5,36,346.4,34.8
		"/>
	<path class="st11" d="M383.9,27.5c-1.7,1.9-2.6,4.2-2.6,6.8c0,2.9,0.9,5.3,2.7,7.2c1.8,1.9,4.1,2.9,6.7,2.9c2.7,0,5-1,6.7-3
		c1.7-2,2.6-4.3,2.6-7c0-2.9-0.9-5.3-2.7-7c-1.8-1.8-4.1-2.7-6.8-2.7C387.9,24.7,385.6,25.6,383.9,27.5 M390.6,26.8
		c2.7,0,5,3.5,5,7.7c0,4.3-2.2,7.7-5,7.7c-2.7,0-5-3.5-5-7.7C385.7,30.3,387.9,26.8,390.6,26.8"/>
	<path class="st11" d="M355.1,26.7c0.6,0.2,1,0.8,1.1,1.5v10.4c0,2,0.6,3.5,1.7,4.3c1.1,0.9,2.2,1.3,3.4,1.3c1.3,0,2.6-0.4,3.8-1.3
		c0.6-0.4,1.3-1.1,2.1-1.9v0.2c0.1,0.7,0.3,1.3,0.6,1.8c0.3,0.5,0.8,0.8,1.3,1c0.2,0.1,0.4,0.1,0.7,0.1h0c1.1,0,2.1-0.8,2.5-2
		c0-0.2,0-0.3-0.2-0.4c-0.6-0.3-1.1-0.8-1.1-1.5c0-0.3,0-0.6,0-1V27.8h0v-0.5c0,0,0,0,0,0c0-1-0.9-2.5-2.8-2.5
		c-2.1,0-2.5,1.5-2.5,1.6v0c0,0.1,0.1,0.3,0.2,0.3c0.9,0.3,1.2,0.8,1.2,1.5l0,0v10.9c-0.5,0.6-1,1-1.4,1.3c-0.8,0.6-1.7,0.9-2.6,0.9
		c-1.3,0-2.1-0.5-2.6-1.4c-0.2-0.5-0.4-1.2-0.4-2.1v-6.5v-0.9v-3v-0.1c0,0,0,0,0,0c0-1-0.8-2.5-2.7-2.5c-2.1,0-2.4,1.5-2.4,1.6v0
		C354.9,26.5,355,26.7,355.1,26.7"/>
	<path class="st11" d="M384.4,24.4c-6.2-1.4-6.9,4.2-6.9,4.2C383.1,29.7,384.4,24.4,384.4,24.4"/>
	<path class="st11" d="M377.4,44.3c0.1,0,0.3,0,0.5,0c1.4,0,2.6-0.8,3.2-1.9c0.3-0.6,0.4-1.3,0.4-1.6c0,0,0-0.1,0-0.2c0,0,0,0-0.1,0
		c0,0,0,0,0,0c-0.7,0.3-1.1,0.6-2,0.6c-1.9,0-2.4-1.1-2.4-3.4v-9.5V25v-4.8c0-0.3-0.1-0.5-0.2-0.6c-0.1-0.1-0.2-0.1-0.3-0.1
		c-3.4,1.1-3.3,4.8-3.3,4.8s0,0.1,0,0.1V25v3.2v9.3C373.2,41.5,374.4,43.9,377.4,44.3"/>
</g>
<g>
	<path class="st13" d="M51.6,52.8c0,1.5-1.4,3.5-3.5,3.5c-0.2,0-0.5,0-0.7-0.1c0,0.7,0.1,1.8,1.3,1.8c1.8,0,2.8-1.6,3.3-2.3
		c0.1-0.2,0.2-0.2,0.3-0.2c0.1,0,0.1,0.1,0.1,0.2c0,0.1,0,0.1-0.1,0.2c-0.9,1.7-2.2,3-4.5,3c-1.7,0-2.4-1.2-2.4-2.6
		c0-2.3,1.7-5.2,3.7-5.2c0.4,0,0.9,0.1,1.1,0.3C51.2,51.5,51.6,52.1,51.6,52.8 M47.6,55.8c1.1,0,2.8-2.4,2.8-3.6
		c0-0.2,0-0.5-0.3-0.5c-1.1,0-2.4,2.2-2.6,4.1C47.5,55.8,47.5,55.8,47.6,55.8 M54.1,52.6c-0.2-0.4-0.3-0.8-0.3-1.2
		c0-1,0.6-1.8,1.3-1.8c0.5,0,0.7,0.3,0.7,0.7c0,0.6-0.4,1.4-1.2,2.4c0.4,1.1,1.5,2.6,1.5,3.8c0,1.2-0.8,2.5-2.8,2.5
		c-2.2,0-2.9-0.9-2.9-1.6c0-0.5,0.4-1.1,1.1-1C52.5,55.3,53.5,53.6,54.1,52.6 M52,56.6c0.2,0.2,0.2,0.5,0.2,1.2
		c0,0.5,0.2,0.8,0.7,0.8c0.6,0,1.4-0.5,1.4-2.4c0-0.5-0.1-1.5-0.1-2.5C53.5,54.9,52.6,56,52,56.6 M65.1,47.8
		c0.5,0.2,0.9,0.5,0.9,1.5c0,2.1-1.5,6-3.8,5.8c-0.2,0.8-0.3,1.5-0.3,1.9c0,0.7,0.2,1,0.8,1c1,0,2.2-1.2,2.9-2.2
		c0.1-0.2,0.2-0.2,0.3-0.2c0.1,0,0.1,0.1,0.1,0.2c0,0.1,0,0.1-0.1,0.2c-0.6,1.2-2.3,3.1-4,3.1c-1.3,0-1.8-0.9-1.8-2.3
		c0-0.9,0.2-1.9,0.4-3c0.7-3,1.9-6.2,3.6-6.2C64.7,47.5,65,47.7,65.1,47.8 M62.2,54.8c1.6-1,2.7-4.3,2.7-6c0-0.2,0-0.5-0.1-0.6
		C64.1,48.3,62.8,52,62.2,54.8 M67.3,52.8c0.4-0.9,1.4-1.7,2.5-1.7c1.6,0,2.2,1,2.2,2.3c0,2.3-1.9,5.5-4.2,5.5
		c-1.6,0-2.2-1.1-2.2-2.5c0-1.1,0.4-2.2,0.9-3C66.6,53.1,66.9,52.8,67.3,52.8 M68.3,53.2c0,0,0.1,0.2,0.1,0.2
		c-0.7,0.8-1.2,2.3-1.2,3.4c0,0.8,0.3,1.4,0.9,1.4c1,0,2.2-3.1,2.2-5.2c0-0.8-0.2-1.4-0.6-1.4C69.3,51.7,68.6,52.4,68.3,53.2
		 M76.3,58.9c-0.4,0-0.8-0.2-0.8-0.6c0-0.5,0.8-4.1,1.7-6.4c0.1-0.3,0.4-0.4,0.7-0.4c0.5,0,1,0.3,1,0.7c0,0.1,0,0.2-0.2,0.7
		c0.6-1,1.4-1.7,2.3-1.7c1.7,0,1.6,1.2,1.3,2.2c0.7-1.2,1.5-2.2,2.4-2.2c1.1,0,1.4,0.7,1.4,1.3c0,1.7-1.7,4.4-1.7,5.4
		c0,0.2,0.1,0.4,0.3,0.4c0.8,0,2-2.2,2.2-2.5c0.1-0.2,0.2-0.3,0.3-0.3c0.1,0,0.1,0.1,0.1,0.2c0,0.1,0,0.1-0.1,0.2
		c-0.3,0.5-1.3,3.1-3,3.1c-0.8,0-1.5-0.4-1.5-1.3c0-1.3,1.5-4.1,1.5-5.1c0-0.2-0.1-0.4-0.3-0.4c-0.5,0-1.8,1.5-2.6,4
		c-0.2,0.7-0.4,1.5-0.7,2.4c-0.1,0.3-0.4,0.4-0.8,0.4c-0.4,0-0.9-0.2-0.9-0.7c0-0.6,1.3-4.2,1.3-5.5c0-0.3-0.1-0.5-0.3-0.5
		c-0.9,0-2.5,3-3.1,6.3C77,58.8,76.7,58.9,76.3,58.9 M88.4,57.5c0,0.3,0.1,0.5,0.4,0.5c0.7,0,1.8-1.8,2-2.2c0.1-0.2,0.2-0.3,0.3-0.3
		c0.1,0,0.1,0.1,0.1,0.2c0,0.1,0,0.2-0.1,0.3c-0.3,0.5-1.4,3-3,3c-0.8,0-1.4-0.4-1.4-1.6c0-0.9,0.7-3.7,1.5-5.9
		c0.1-0.3,0.4-0.4,0.8-0.4c0.5,0,1,0.3,1,0.8c0,0.1,0,0.2,0,0.2C89.5,54,88.4,56.4,88.4,57.5 M90.5,49.9c-0.7,0.5-1.6,0.8-2,0.8
		c-0.1,0-0.2,0-0.2-0.1c0-0.2,0.4-0.3,1.3-1.2c0.8-0.8,0.7-1.3,1.2-1.3c0.4,0,0.7,0.3,0.7,0.6C91.6,49.1,91.1,49.6,90.5,49.9
		 M92.4,52.8c0.4-0.9,1.4-1.7,2.6-1.7c1.6,0,2.2,1,2.2,2.3c0,2.3-1.9,5.5-4.2,5.5c-1.6,0-2.2-1.1-2.2-2.5c0-1.1,0.4-2.2,0.9-3
		C91.8,53.1,92.1,52.8,92.4,52.8 M93.5,53.2c0,0,0.1,0.2,0.1,0.2c-0.7,0.8-1.2,2.3-1.2,3.4c0,0.8,0.3,1.4,0.9,1.4
		c1,0,2.2-3.1,2.2-5.2c0-0.8-0.2-1.4-0.6-1.4C94.4,51.7,93.8,52.4,93.5,53.2"/>
	<path class="st14" d="M28.1,43.9c-0.8,0.8-1.9,1-2.9,1c-2,0-3.7-1.7-3.7-4.6c0-2.4,1.1-4.2,3.4-4.2c2.4,0,2.9,1.7,3.1,1.6l0.4-0.3
		c0.1,0,0.1-0.1,0.1-0.2v-0.9c0-0.1,0-0.2-0.1-0.3c-0.5-0.3-1.7-0.9-3.5-0.9c-3.2,0-5.7,2.3-5.7,5.3c0,3.2,2.3,5.4,5.7,5.4
		c1.4,0,2.5-0.2,2.9-0.4c0.2-0.1,0.2-0.3,0.3-0.4l0.5-1C28.7,43.9,28.3,43.7,28.1,43.9"/>
	<path class="st14" d="M36.2,40.9c1.4-0.6,2-1.8,2-3c0-1.8-1.4-2.5-2.8-2.5h-0.8h-4.3c-0.1,0-0.2,0-0.3,0.2l-0.1,0.3
		c-0.1,0.1,0,0.2,0.3,0.3c0.6,0.1,0.9,0.3,0.9,1v7.1c0,0.5-0.4,0.8-0.8,0.8c-0.1,0.1-0.2,0.1-0.3,0.2L30,45.5
		c-0.1,0.2,0.1,0.3,0.2,0.3H34c0.1,0,0.2,0,0.2-0.1l0.1-0.3c0-0.1,0-0.2-0.2-0.2c-0.7-0.2-0.9-0.3-0.9-0.9v-2.9h1.1l0.3,0.5l2,3.6
		c0.1,0.1,0.2,0.3,0.4,0.3h2.2v-0.5C38.7,44.9,37.5,43.2,36.2,40.9 M34.7,40.4c-0.2,0-0.3,0.1-0.5,0.1h-0.9v-4.3h1.2h0.2
		c0.8,0,1.4,0.6,1.4,1.9C36.1,39.4,35.5,40.2,34.7,40.4"/>
	<path class="st14" d="M47.4,43.8l-0.3-0.1c-0.2,0-0.4,1.2-1.9,1.2H44c-0.8,0-1.1-0.3-1.1-1.4v-2.8h2.8c0.3,0,0.4,0,0.5-0.2l0.3-0.5
		c0.1-0.1,0-0.2-0.2-0.2h-3.4v-3.5h2.2c1,0,1.2,1.2,1.4,1l0.3-0.2l0.1-0.2v-1.2c0-0.2-0.2-0.3-0.4-0.3H40c-0.1,0-0.2,0-0.3,0.2
		l-0.1,0.3c-0.1,0.1,0,0.2,0.3,0.3c0.6,0.1,0.9,0.3,0.9,1v7.6c0,1,0.3,1,1.5,1h4.6c0.4,0,0.7-0.1,0.7-0.4v-1.4
		C47.6,43.9,47.5,43.8,47.4,43.8"/>
	<path class="st14" d="M54.4,35.4h-0.7h-4.9c-0.1,0-0.2,0-0.3,0.2l-0.1,0.3c-0.1,0.1,0,0.2,0.3,0.3c0.6,0.1,0.9,0.3,0.9,1v7.7
		c0,0.4,0.1,0.7,0.4,0.8c0.8,0.3,1.7,0.3,3.6,0.3c0.3,0,0.5,0,0.8,0c2.9-0.3,4.9-2.7,4.9-5.6C59.3,37.5,58.1,35.6,54.4,35.4
		 M54.4,44.9C54.2,45,53.9,45,53.7,45c-1.1,0-1.9-0.3-1.9-1.4v-7.4h1.7c0.3,0,0.6,0,0.9,0c1.7,0.3,2.6,1.5,2.6,4
		C57.1,42.7,56.2,44.5,54.4,44.9"/>
	<path class="st14" d="M66.5,35.2h-0.3c-2.9,0.1-5.4,2.3-5.4,5.5c0,3.3,2.5,5.2,5.2,5.2h0.3c3.4-0.1,5.4-2.7,5.4-5.6
		C71.6,37.5,69.5,35.2,66.5,35.2 M66.3,44.9L66.3,44.9c-1.8,0-3.2-1.5-3.2-4.8c0-1.5,0.7-4,3.1-4h0c1.6,0,3.1,1.3,3.1,4.4
		C69.4,42.4,68.5,44.9,66.3,44.9"/>
	<path class="st14" d="M85.8,44.1L85.3,37c0-0.6,0.3-0.8,0.8-0.9c0.1,0,0.3,0,0.3-0.2l0.1-0.3c0.1-0.2,0-0.2-0.2-0.2H84
		c-0.2,0-0.4,0.1-0.6,0.5L79.7,43l-3.3-7c-0.3-0.6-0.4-0.6-0.9-0.6h-2.4c-0.1,0-0.2,0-0.3,0.1l-0.1,0.3c-0.1,0.1,0,0.2,0.3,0.3
		c0.2,0,0.6,0.2,0.9,0.6c0.1,0.1,0.3,0.3,0.3,0.6l-0.7,6.9c0,0.5-0.4,0.8-0.7,0.8c-0.1,0.1-0.3,0.1-0.3,0.2l-0.1,0.2
		c-0.1,0.2,0.1,0.3,0.2,0.3h2.7c0.1,0,0.2,0,0.3-0.1l0.1-0.3c0-0.1,0-0.2-0.2-0.2c-0.7-0.2-1-0.3-1-0.9l0.7-5.9l3.3,7.1
		c0.1,0.3,0.2,0.5,0.3,0.5h0.4c0.1,0,0.2-0.1,0.3-0.3l3.5-7.2l0.5,5.9c0,0.5-0.4,0.8-0.7,0.8c-0.1,0.1-0.2,0.1-0.3,0.2l-0.1,0.2
		c0,0.2,0.1,0.3,0.2,0.3h3.8c0.1,0,0.2,0,0.2-0.1l0.1-0.3c0.1-0.1,0-0.2-0.2-0.2C86.1,44.9,85.8,44.8,85.8,44.1"/>
	<path class="st14" d="M107.2,35.4h-8.4c-0.3,0-0.4,0-0.5,0.2L98,36.1c-0.2,0.3,0,0.3,0.2,0.3h3.4v7.8c0,0.5-0.4,0.8-0.8,0.8
		c-0.1,0.1-0.2,0.1-0.3,0.2l-0.1,0.2c-0.1,0.2,0.1,0.3,0.2,0.3h3.7c0.1,0,0.2,0,0.3-0.1l0.1-0.3c0-0.1,0-0.2-0.2-0.2
		c-0.7-0.2-0.9-0.3-0.9-0.9v-7.8h2.8c0.2,0,0.4,0,0.5-0.2l0.3-0.6C107.6,35.4,107.3,35.4,107.2,35.4"/>
	<path class="st14" d="M112.6,36.1c0.1,0,0.2-0.1,0.3-0.2l0.1-0.3c0-0.2-0.1-0.2-0.2-0.2H109c-0.2,0-0.2,0-0.3,0.1l-0.1,0.3
		c-0.1,0.1,0,0.2,0.2,0.3c0.7,0.2,0.9,0.3,0.9,0.9v7.2c0,0.6-0.4,0.8-0.8,0.8c-0.1,0.1-0.2,0.1-0.3,0.2l-0.1,0.2
		c0,0.2,0.1,0.3,0.2,0.3h3.8c0.1,0,0.2,0,0.3-0.1l0.1-0.3c0.1-0.1,0-0.2-0.1-0.2c-0.8-0.2-1-0.3-1-0.9v-7.2
		C111.8,36.4,112.2,36.1,112.6,36.1"/>
	<path class="st14" d="M123.1,43.9c-0.8,0.8-2,1-2.9,1c-2,0-3.8-1.7-3.8-4.6c0-2.4,1.2-4.2,3.4-4.2c2.4,0,2.8,1.7,3.1,1.6l0.4-0.3
		c0,0,0.1-0.1,0.1-0.2v-0.9c0-0.1,0-0.2-0.1-0.3c-0.5-0.3-1.7-0.9-3.5-0.9c-3.2,0-5.6,2.3-5.6,5.3c0,3.2,2.3,5.4,5.7,5.4
		c1.4,0,2.5-0.2,2.9-0.4c0.1-0.1,0.2-0.3,0.3-0.4l0.4-1C123.7,43.9,123.3,43.7,123.1,43.9"/>
	<path class="st14" d="M98.8,45c-0.7-0.2-0.8-0.2-1.1-1c-1-2.2-2.2-5.3-3.2-8.2c0-0.2-0.2-0.4-0.4-0.4h-1h-1.6c-0.2,0-0.3,0-0.4,0.2
		L91,35.8c-0.2,0.3,0.5,0.3,0.8,0.6c0.2,0.1,0.6,0.4,0.3,1.1L89.6,44c-0.3,0.8-0.4,0.9-1,1c-0.2,0.1-0.3,0.1-0.4,0.3l-0.1,0.2
		c-0.1,0.4,0.2,0.3,0.5,0.3h2.3c0.2,0,0.2-0.2,0.3-0.3l0.1-0.2c0.2-0.3-1-0.2-0.7-1l0.6-1.7h1.9h1.9l1.1,2.9c0,0.1,0.2,0.2,0.4,0.2
		h2.1c0.1,0,0.3,0,0.3-0.1l0.2-0.3C99,45.1,98.9,45,98.8,45 M93.1,41.7h-1.5l1.5-4v0l1.5,4H93.1z"/>
	<path class="st4" d="M83.9,21c0,0-0.1-0.1-0.5-0.4c-0.4-0.3-0.9-0.5-1.3-0.7l-1.8-0.7c-0.2-0.1-0.2-0.2-0.2-0.2
		c-0.1-0.3-0.2-0.5-0.4-0.6c-0.1-0.1-0.3-0.2-0.4-0.4c-0.4-0.3-1.2-0.8-1.7-1.2c-0.4-0.3-0.8-0.5-0.8-0.5c-0.1,0-0.3-0.3-0.4-0.5h0
		v-0.1c-0.2-0.6-0.9-0.8-1.4-0.8c-0.5,0-1,0-1.6-0.2c-0.2,0-0.3-0.1-0.5-0.1c-0.8-0.2-1.8-0.2-2.7,0.1c-0.1,0-0.3,0-0.4,0.1
		c-2.6,0.9-5.2,3.2-6.9,6.2c-1.6,2.7-3.6,5.6-3.8,5.9c-0.3,0.4-0.5,0.8-0.6,1.1c0,0.4,0.1,0.6,0.4,0.8c0.9,0.6,2.2,0.9,3.7,0.8
		c0.8,0,1.2-0.2,1.7-0.6c0,0-0.1,0.3-0.2,0.4v0.2c0,0.4,0.4,0.5,0.7,0.7c0.6,0.3,2.4,0.7,3.9,0.5c0.4,0,0.8-0.4,1-0.8
		c0,0.1,0,0.2,0,0.4c0.1,0.3,0.3,0.6,0.6,0.8c0.6,0.3,1.5,0.4,2.5,0.4c1.2,0,2.4-0.2,2.8-0.4c0.2-0.2,0.4-0.5,0.4-0.8
		c0.1,0,0.1,0.1,0.2,0.2l0.1,0c0.4,0.2,0.8,0.3,1.3,0.3c1.1,0.1,2.3-0.2,2.9-0.7c0.5-0.3,0.5-0.7,0.5-0.9c-0.1-0.2-0.2-0.4-0.4-0.6
		h0l-0.5-0.3c-0.2-0.2-0.8-0.5-0.9-0.9v-0.1c0.1-0.1,0.4-0.2,1,0.2c0.1,0.1,0.2,0.1,0.3,0.2c-0.1-0.1,0.3,0.2,0.6,0.2
		c0.2,0,0.3-0.1,0.5-0.1c0.6-0.4,1.5-1.3,1.5-2.6v-0.1v-0.1c0.5-0.5,0.7-1.2,0.7-1.7l0-0.2c0-0.2,0-0.6,0.2-1l0-0.1
		c0.1-0.2,0.1-0.4,0.1-0.5C84.2,21.3,84.2,21.2,83.9,21L83.9,21z"/>
	<path class="st15" d="M70,27.5c0,0.1,0,0.2,0,0.3c0,0.2-0.1,0.4-0.1,0.6c-0.4,1.6-0.9,1.8-1.2,1.8c-1.4,0.2-3.1-0.2-3.6-0.4
		c-0.1,0-0.5-0.3-0.2-0.7c0.5-1,0.6-1.3,0.8-1.6c0,0,0.4-1.2,1.8-4.5c0.7-1.5,1.5-2.5,2.3-3.2c1-0.9,2-1.3,2.6-1.3h0.5
		c0.4,0,0.8,0,1,0.3v0c0.1,0.1,0.5,0.9,0.6,1c0.2,0.4,0.3,0.7,0.4,1.1c0,0.2-0.1,0.3-0.2,0.3c-0.6,0-1.3,0.1-1.8,0.4
		c-0.4,0.2-0.6,0.4-0.9,0.6c-0.6,0.6-1.1,1.4-1.4,2.7C70.3,25.5,70.1,26.4,70,27.5"/>
	<path class="st15" d="M75.4,30.6C75.1,30.9,74,31,72.9,31c-0.8,0-1.7-0.1-2.2-0.4c-0.4-0.2-0.5-0.3-0.4-1.2c0.7-3.9,1-5.6,2.2-6.8
		c0.1-0.1,0.2-0.2,0.4-0.3c0.7-0.5,1.3-0.7,1.7-0.5l0.1,0.1c0,0.3,0,0.4,0,0.7c0,0.4,0,0.8,0.3,1.1c0.2,0.3,0.4,0.6,0.3,1
		c-0.3,0.9-0.7,1.8-0.7,2.8c0,0,0,0.8,0.5,2c0.1,0.1,0.3,0.6,0.4,0.7C75.5,30.4,75.5,30.5,75.4,30.6"/>
	<path class="st15" d="M83.6,22c-0.3,0.6-0.3,1.3-0.4,1.3c-0.1,0.7-0.3,1.2-0.8,1.6c0.2,1.3-0.7,2.2-1.2,2.5c0,0-0.1,0.1-0.3,0.1
		l-0.1-0.1c-0.1-0.1-0.4-0.2-0.4-0.2c-1.5-0.7-2,0-1.8,0.6c0.2,0.5,0.8,0.9,1.1,1.1c0.3,0.2,0.5,0.3,0.5,0.4c0.1,0,0.1,0.1,0.1,0.1
		c0.1,0.4-1.4,1-2.7,0.9c-0.4,0-0.8-0.1-1.1-0.3c-0.8-0.5-1.2-1.7-1.2-2.1c-0.1-0.9,0.1-1.7,0.4-2.5c0.2-0.4,0.5,0.1,0.7,0.2
		c0.4,0.3,0.8,0.4,1.3,0.5c0.7,0.2,1.4,0.2,2.1,0.1h0.1c0.4,0.1,1,0.3,1.1,0.4c0.1,0,0.1,0,0.1,0c0.2-0.1,0.5-0.5,0.6-1.1
		c0-0.2,0-0.4,0-0.5c-0.1-0.2-0.5-0.3-0.8-0.3c-0.2,0-0.4,0-0.5,0.1c0,0-0.1,0-0.2,0c0-0.1,0-0.2,0.1-0.3c0.2-0.2,0.5-0.2,0.7-0.2
		c0.3,0,0.6,0,0.9,0.1c0.1,0,0.3-0.1,0.4-0.2c0.4-0.6,0.3-1.4,0.4-1.8l0.2-0.4c0-0.1,0-0.1,0-0.1c-0.4-0.4-1.3-0.7-1.6-0.9
		c0,0-2.1-0.9-2.2-0.9c-0.1,0-0.2-0.2-0.2-0.2s-0.4-0.7-0.4-0.8c0-0.1-0.1-0.1-0.1-0.1c-0.2-0.2-0.4-0.3-0.6-0.4
		c-0.6-0.5-1.1-0.7-1.8-1.1c0,0-0.6-0.3-1-0.2c-0.2,0-0.5,0.2-0.6,0.4c-0.1,0.2-0.3,0.5-0.6,0.4c-0.3-0.1-0.5-0.1-0.8-0.1
		c-1.3-0.1-2.3,0.5-2.3,0.5c-0.3,0.1-0.5,0.3-0.8,0.5c-1,0.8-2.1,2-2.9,3.9c-0.5,1.1-0.9,2-1.2,2.7c0,0-0.5,1.1-0.7,1.5
		c-0.6,1.4-0.9,2.2-2.4,2.1c-1.4,0-2.4-0.2-3.1-0.5c-0.2-0.1-0.6-0.3-0.2-0.8c0.5-0.6,4.1-6.3,4.1-6.3c1.5-2.6,3.9-5,6.4-5.9
		c0.2-0.1,0.3-0.1,0.5-0.2c0.8-0.2,1.8-0.3,2.6,0c0.1,0,0.2,0,0.3,0.1c0.6,0.1,1.2,0.2,1.8,0.2c0.3,0,0.7,0.1,0.9,0.4
		c0.2,0.5,0.5,0.8,0.7,0.9c0,0,0.5,0.3,1.2,0.7c0.4,0.3,0.9,0.6,1.2,0.9c0.2,0.1,0.3,0.2,0.3,0.3c0.1,0.1,0.2,0.4,0.3,0.7
		c0.1,0.1,0.2,0.2,0.4,0.3c0.1,0,0.1,0,2.1,0.8c0.4,0.2,0.8,0.4,1.2,0.7l0.4,0.3C83.8,21.6,83.6,21.8,83.6,22"/>
	<path class="st15" d="M76.9,20.1c0.2,0,0.5-0.1,0.8-0.2h0.2c0,0,0,0,0.1,0l0.4,0.2c0.2,0.1,0.1,0.4,0.1,0.5c0,0.1,0,0.3-0.1,0.4
		c-0.1,0.1-0.2,0-0.3-0.1c-0.1-0.2-0.4-0.4-0.5-0.4c-0.1,0-0.3,0-0.6,0c-0.2,0-0.3,0-0.3-0.1C76.8,20.3,76.6,20.1,76.9,20.1"/>
	<path class="st13" d="M43.2,54.3H20.1c-0.3,0-0.6-0.3-0.6-0.6c0-0.3,0.3-0.6,0.6-0.6h23.1c0.3,0,0.6,0.3,0.6,0.6
		C43.8,54.1,43.5,54.3,43.2,54.3"/>
	<path class="st13" d="M123.2,54.3h-23.1c-0.3,0-0.6-0.3-0.6-0.6c0-0.3,0.3-0.6,0.6-0.6h23.1c0.3,0,0.6,0.3,0.6,0.6
		C123.8,54.1,123.5,54.3,123.2,54.3"/>
</g>
<g>
	<g>
		<g>
			<g>
				<g>
					<g>
						<g>
							<defs>
								<path id="SVGID_9_" d="M491.7,15.9H447v44.8h44.7V46c0.2-0.2,0.3-0.6,0.3-1c0-0.5-0.1-0.7-0.3-1V15.9z"/>
							</defs>
							<radialGradient id="SVGID_10_" cx="454.5475" cy="23.6784" r="53.2792" gradientUnits="userSpaceOnUse">
								<stop  offset="0" style="stop-color:#81D1F4"/>
								<stop  offset="5.932254e-02" style="stop-color:#7BCFF3"/>
								<stop  offset="0.1383" style="stop-color:#6AC8F0"/>
								<stop  offset="0.2284" style="stop-color:#4EBEEA"/>
								<stop  offset="0.326" style="stop-color:#28AFE3"/>
								<stop  offset="0.3708" style="stop-color:#14A7DF"/>
								<stop  offset="0.4361" style="stop-color:#119ED9"/>
								<stop  offset="0.6132" style="stop-color:#0A8CCB"/>
								<stop  offset="0.7977" style="stop-color:#0681C4"/>
								<stop  offset="1" style="stop-color:#057DC1"/>
							</radialGradient>
							<use xlink:href="#SVGID_9_"  style="overflow:visible;fill:url(#SVGID_10_);"/>
							<clipPath id="SVGID_11_">
								<use xlink:href="#SVGID_9_"  style="overflow:visible;"/>
							</clipPath>
						</g>
					</g>
				</g>
			</g>
			<g>
				<path class="st4" d="M447,38.6h2.1l0.5-1.2h1.1l0.5,1.2h4.2v-0.9l0.4,0.9h2.2l0.4-0.9v0.9h10.5l0-1.9h0.2c0.1,0,0.2,0,0.2,0.3
					v1.7h5.4v-0.4c0.4,0.2,1.1,0.4,2,0.4h2.3l0.5-1.2h1.1l0.5,1.2h4.4v-1.1l0.7,1.1h3.5v-7.3h-3.5v0.9l-0.5-0.9h-3.6v0.9l-0.4-0.9
					h-4.8c-0.8,0-1.5,0.1-2.1,0.4v-0.4h-3.3v0.4c-0.4-0.3-0.9-0.4-1.4-0.4h-12.2l-0.8,1.9l-0.8-1.9h-3.8v0.9l-0.4-0.9h-3.3l-1.5,3.5
					V38.6z M488.5,37.6h-1.8l-2.4-4v4h-2.6l-0.5-1.2h-2.6l-0.5,1.2h-1.5c-0.6,0-1.4-0.1-1.8-0.6c-0.4-0.5-0.7-1.1-0.7-2
					c0-0.8,0.1-1.5,0.7-2c0.4-0.4,1-0.6,1.9-0.6h1.2v1.1h-1.2c-0.5,0-0.7,0.1-1,0.3c-0.2,0.2-0.4,0.6-0.4,1.2c0,0.6,0.1,1,0.3,1.2
					c0.2,0.2,0.5,0.3,0.9,0.3h0.6l1.8-4.1h1.9l2.1,5v-5h1.9l2.2,3.7v-3.7h1.3V37.6z M473.7,37.6h-1.3v-5.3h1.3V37.6z M471.7,33.8
					c0,0.8-0.6,1.3-0.9,1.4c0.3,0.1,0.5,0.3,0.6,0.4c0.2,0.3,0.2,0.5,0.2,1v1h-1.3v-0.7c0-0.3,0-0.8-0.2-1c-0.2-0.2-0.5-0.2-0.9-0.2
					h-1.4v1.9h-1.3v-5.3h2.9c0.6,0,1.1,0,1.5,0.3C471.4,32.8,471.7,33.2,471.7,33.8z M465.7,37.6h-4.2v-5.3h4.2v1.1h-2.9v0.9h2.9
					v1.1h-2.9v1h2.9V37.6z M460.6,37.6h-1.3l0-4.1l-1.8,4.1h-1.1l-1.8-4.1v4.1H452l-0.5-1.2h-2.6l-0.5,1.2h-1.4l2.2-5.3h1.9l2.1,5
					v-5h2.1l1.6,3.6l1.5-3.6h2.1V37.6z M480.9,35.3l-0.9-2.1l-0.9,2.1H480.9z M470,34.5c-0.2,0.1-0.4,0.1-0.6,0.1h-1.5v-1.2h1.6
					c0.2,0,0.5,0,0.6,0.1c0.2,0.1,0.3,0.2,0.3,0.5C470.3,34.2,470.2,34.4,470,34.5z M451.1,35.3l-0.9-2.1l-0.9,2.1H451.1z"/>
				<path class="st4" d="M471.4,43.1c0,1.5-1.1,1.8-2.2,1.8h-1.6v1.8h-2.4l-1.6-1.7l-1.6,1.7h-5v-5.3h5l1.5,1.7l1.6-1.7h4
					C470.3,41.4,471.4,41.7,471.4,43.1z M461.4,45.6h-3.1v-1h2.8v-1.1h-2.8v-0.9h3.2l1.4,1.5L461.4,45.6z M466.4,46.2l-1.9-2.1
					l1.9-2.1V46.2z M469.3,43.8h-1.6v-1.3h1.6c0.4,0,0.8,0.2,0.8,0.6C470,43.6,469.7,43.8,469.3,43.8z M477.7,41.4h4.2v1.1h-3v0.9
					h2.9v1.1H479v1l3,0v1.1h-4.2V41.4z M476.1,44.2c0.3,0.1,0.5,0.3,0.6,0.4c0.2,0.3,0.2,0.5,0.2,1v1h-1.3V46c0-0.3,0-0.8-0.2-1
					c-0.2-0.2-0.5-0.2-0.9-0.2h-1.3v1.9H472v-5.3h2.9c0.6,0,1.1,0,1.5,0.3c0.4,0.2,0.6,0.6,0.6,1.2C477,43.7,476.5,44.1,476.1,44.2z
					 M475.4,43.6c-0.2,0.1-0.4,0.1-0.6,0.1h-1.5v-1.2h1.6c0.2,0,0.4,0,0.6,0.1c0.2,0.1,0.3,0.3,0.3,0.5
					C475.6,43.3,475.5,43.5,475.4,43.6z M486.7,43.9c0.3,0.3,0.4,0.6,0.4,1.1c0,1.1-0.7,1.7-2,1.7h-2.4v-1.1h2.4
					c0.2,0,0.4,0,0.5-0.1c0.1-0.1,0.1-0.2,0.1-0.3c0-0.2-0.1-0.3-0.2-0.4c-0.1-0.1-0.2-0.1-0.4-0.1c-1.2,0-2.6,0-2.6-1.6
					c0-0.8,0.5-1.6,1.8-1.6h2.5v1.1h-2.3c-0.2,0-0.4,0-0.5,0.1c-0.1,0.1-0.2,0.2-0.2,0.4c0,0.2,0.1,0.3,0.3,0.4
					c0.1,0,0.3,0.1,0.5,0.1l0.7,0C486,43.5,486.4,43.6,486.7,43.9z M491.7,46c-0.3,0.5-0.9,0.7-1.7,0.7h-2.4v-1.1h2.4
					c0.2,0,0.4,0,0.5-0.1c0.1-0.1,0.2-0.2,0.2-0.3c0-0.2-0.1-0.3-0.2-0.4c-0.1-0.1-0.2-0.1-0.4-0.1c-1.2,0-2.7,0-2.7-1.6
					c0-0.8,0.5-1.6,1.8-1.6h2.5v-1.1h-2.3c-0.7,0-1.2,0.2-1.6,0.4v-0.4h-3.4c-0.5,0-1.2,0.1-1.5,0.4v-0.4h-6.1v0.4
					c-0.5-0.3-1.3-0.4-1.7-0.4H471v0.4c-0.4-0.4-1.2-0.4-1.8-0.4h-4.5l-1,1.1l-1-1.1h-6.8v7.3h6.6l1.1-1.1l1,1.1h4.1V46h0.4
					c0.5,0,1.2,0,1.7-0.3v2h3.4v-1.9h0.2c0.2,0,0.2,0,0.2,0.2v1.7h10.3c0.6,0,1.3-0.2,1.7-0.5v0.5h3.3c0.7,0,1.3-0.1,1.9-0.3V46z
					 M491.7,42.5h-2.3c-0.2,0-0.4,0-0.5,0.1c-0.1,0.1-0.2,0.2-0.2,0.4c0,0.2,0.1,0.3,0.3,0.4c0.1,0,0.3,0.1,0.5,0.1l0.7,0
					c0.7,0,1.2,0.1,1.4,0.4c0,0,0.1,0.1,0.1,0.1V42.5z"/>
			</g>
		</g>
		<g>
			<g>
				<g>
					<path class="st16" d="M444.2,59.9h-0.4c0-0.2-0.1-0.5-0.1-0.5c0-0.1,0-0.3-0.3-0.3h-0.6l0,0.8h-0.4v-2h0.9
						c0.3,0,0.7,0.1,0.7,0.6c0,0.3-0.1,0.4-0.2,0.5c0.1,0,0.2,0.1,0.2,0.4l0,0.3c0,0.1,0,0.1,0.1,0.2V59.9z M443.8,58.4
						c0-0.2-0.2-0.3-0.3-0.3h-0.6v0.6h0.5C443.6,58.7,443.8,58.7,443.8,58.4z M445.4,58.9c0-1.2-1-2.1-2.1-2.1
						c-1.2,0-2.1,0.9-2.1,2.1c0,1.2,0.9,2.1,2.1,2.1C444.4,61,445.4,60.1,445.4,58.9z M445.1,58.9c0,1-0.8,1.8-1.8,1.8
						c-1,0-1.8-0.8-1.8-1.8c0-1,0.8-1.8,1.8-1.8C444.3,57.1,445.1,57.9,445.1,58.9z"/>
				</g>
			</g>
		</g>
	</g>
</g>
</svg>
