<?xml version="1.0" encoding="utf-8"?>
<!-- Generator: Adobe Illustrator 21.0.0, SVG Export Plug-In . SVG Version: 6.00 Build 0)  -->
<svg version="1.1" id="Layer_1" xmlns="http://www.w3.org/2000/svg" xmlns:xlink="http://www.w3.org/1999/xlink" x="0px" y="0px"
	 viewBox="0 0 515 76" style="enable-background:new 0 0 515 76;" xml:space="preserve">
<style type="text/css">
	.st0{fill:#27A84C;}
	.st1{fill:#E83426;}
	.st2{opacity:0.8;}
	.st3{clip-path:url(#SVGID_2_);fill:#9C2B21;}
	.st4{fill:#FFFFFF;}
	.st5{fill:#91C54E;}
	.st6{clip-path:url(#SVGID_4_);fill:url(#SVGID_5_);}
	.st7{fill:none;stroke:#FFFFFF;stroke-width:0.263;stroke-linecap:round;stroke-linejoin:round;stroke-miterlimit:10;}
	.st8{clip-path:url(#SVGID_7_);fill:url(#SVGID_8_);}
	.st9{fill:none;stroke:#FFFFFF;stroke-width:0.163;stroke-miterlimit:10;}
	.st10{fill:#00A651;}
	.st11{fill:#ED1C24;}
	.st12{fill:url(#SVGID_10_);}
	.st13{fill:#057DC1;}
	.st14{fill:#E4002B;}
</style>
<g>
	<path class="st0" d="M289.6,52.7c-0.7-0.8-1.6-1.3-2.8-1.3c-2.3,0-4.5,1.8-5.1,4.1c-0.3,1.2-0.1,2.2,0.5,3.1
		c0.7,0.9,1.7,1.3,2.9,1.3c2.3,0,4.6-1.9,5.1-4.1C290.5,54.7,290.3,53.6,289.6,52.7 M288.3,55.6c-0.3,1.3-1.6,2.4-3,2.4
		c-0.6,0-1.1-0.2-1.4-0.6c-0.3-0.4-0.4-0.9-0.2-1.5c0.3-1.3,1.7-2.5,3-2.5c0.6,0,1.1,0.2,1.4,0.6C288.3,54.4,288.4,55,288.3,55.6
		 M262,51.4c-2.3,0-4.5,1.8-5.1,4.1c-0.3,1.2-0.1,2.2,0.5,3.1c0.6,0.9,1.7,1.3,2.9,1.3c2.3,0,4.6-1.9,5.1-4.1c0.2-1.2,0-2.3-0.6-3.1
		C264.1,51.9,263.1,51.4,262,51.4 M263.5,55.6c-0.3,1.3-1.6,2.4-3,2.4c-0.6,0-1.1-0.2-1.4-0.6c-0.3-0.4-0.4-0.9-0.2-1.5
		c0.3-1.3,1.7-2.5,3-2.5c0.6,0,1.1,0.2,1.4,0.6C263.5,54.4,263.6,55,263.5,55.6"/>
	<path class="st1" d="M276.7,19.3c5.4,0,11.9-0.9,16.1,3.6c12.6,13.4-4.3,30.3-18.7,30.3c-14.3,0.1-28.3-16.1-13.4-30.3
		C265.4,18.4,271.8,19.3,276.7,19.3"/>
	<g class="st2">
		<g>
			<g>
				<defs>
					<rect id="SVGID_1_" x="254.4" y="27.9" width="41.9" height="25.3"/>
				</defs>
				<clipPath id="SVGID_2_">
					<use xlink:href="#SVGID_1_"  style="overflow:visible;"/>
				</clipPath>
				<path class="st3" d="M275.5,50.4c-11.7,0-23.2-10.8-18.8-22.5c-7.6,12.8,4.8,25.3,17.5,25.3c9,0,19-6.7,22.1-14.9
					C292.2,45.2,283.4,50.4,275.5,50.4"/>
			</g>
		</g>
	</g>
	<path class="st4" d="M281.8,41.4c-1.4,0.8-2.6,1-2.8,0.1c-0.3-1.4,1.2-3,3-2.8C281.8,39.7,281.8,40.6,281.8,41.4 M286,36.3
		c-0.1,0.2-0.2,0.5-0.3,0.8c-0.1,0.2-0.2,0.8-0.4,1.6c-0.6,0.6-1.4,1.3-2.2,1.9c0.1-5.2,2.3-11.9,2.5-12.8c0.3-1.1,0.4-1.5,0.1-1.7
		c-0.2-0.1-0.5,0.1-0.7,0.6c-0.4,0.7-2.1,6.1-2.8,10.8v0.1c-3.6-0.7-5.4,3.2-4.1,4.8c0.7,0.9,2.3,1.1,4,0.1c0.2,1.1,0.6,1.8,1.3,2
		c0.2,0,0.3,0,0.2-0.1c-0.3-0.8-0.4-1.6-0.5-2.6c0.7-0.5,1.4-1.2,2-2c-0.2,1.2-0.4,2.5-0.2,3c0.5,1,1.1,0.9,1.1,0.6c0.1-4.6,1-6,1-7
		C286.9,35.7,286.2,36.1,286,36.3"/>
	<path class="st4" d="M272.1,33.4c-0.2,0.7-0.9,1-1.6,0.8c-0.6-0.2-0.9-1-0.7-1.6c0.2-0.7,0.9-1,1.6-0.8
		C272.1,32,272.4,32.7,272.1,33.4"/>
	<path class="st4" d="M269.3,36.3c0.2-0.3,0.9-0.6,0.9,0.2c0,1-0.8,2.3-1,7c0,0.4-0.7,0.4-1.1-0.6c-0.5-1,0.7-5.3,0.9-5.8
		C269.1,36.8,269.2,36.6,269.3,36.3"/>
	<path class="st4" d="M288.8,33.4c-0.2,0.7-0.9,1-1.6,0.8c-0.6-0.2-0.9-1-0.7-1.6c0.2-0.7,0.9-1,1.6-0.8
		C288.7,32,289,32.7,288.8,33.4"/>
	<path class="st4" d="M279.6,44.5c-3.7,4.4-4.7-2.3-4.4-6.3l-2.6,5.8c-0.4,0.8-0.7,1-1.2,0.9c-0.4-0.1-0.7-0.8-0.5-1.7
		c0,0,0.6-3.6,0.9-4.8c0.4-1.7,1-3.8,1-3.8s0.1-0.5,0.5-0.4s0.4,0.4,0.4,0.7s-0.5,2.8-0.5,2.8l-0.6,3.1l1.2-2.7
		c1.9-3.6,2.7-0.9,2.6,0.2c0,3.4,0.2,8.6,2.8,6.3c0.1-0.1,0.1-0.1,0.2-0.2C279.6,44.3,279.7,44.3,279.6,44.5"/>
	<path class="st4" d="M267.9,29.6c-0.1,0.4-1.5,10.3-3.1,12.6c-0.5,0.6-0.7,0.3-0.7-0.2l-0.1-4.8l-0.1-2.3c0-1.3-1.4-1.1-1.4,0v5.4
		c0,4.2,1.6,4.1,1.6,4.1c2.4,0,3.4-6.2,4.4-10.5c0,0,1-4.7,1-5.3C269.4,28.2,267.9,29.1,267.9,29.6"/>
	<path class="st5" d="M276.4,21.5c1,0.8,4.5-1.2,5-1.9c0.7-0.7,0.9-1.3,0.9-2.3c0.8,1.1,0.8,1.8,0.4,2.8c-0.9,2.8-4.2,2.5-1.7,3.3
		c0.9,0.1,1.9,0,2.8,0.2c0.7-0.1,1.1-0.3,1.7-0.8c-0.3,0.6-0.6,1.1-1.1,1.3c-0.9,0.2-1.3,0.5-2.1,0.8c-1.4,0.4-2.6,0.2-3.8-0.3
		c-1.1,0.3-0.6-0.2-0.2,0.7c0.1,0.5,0.2,1,0.3,1.5c0.2,0.5,0.5,0.8,1.1,1.2c-0.6-0.1-1.5-0.3-2-0.7c-3-2.4-1.4-3-4.2-1
		c-1.4,1-4,2-5.2,0.6c1.2,0.1,1.8,0,3.2-1.2c0.9-0.9,1.3-1.2,0.9-1.3c-1.1-0.2-1.9-0.5-3.2-0.9c-1.9-0.7-3.7-3.4-1.3-5.7
		c-1.4,3.6,0.5,4,4.4,3.8c-0.7-1.2-0.5-2.8,0.1-4c0.2,1.5,1.1,3.1,2.5,3.7c0.9-1.3,0.9-3.9,0.5-5.4c-0.3-1.1,1.3-1,1.5-0.3
		C277.5,17.5,276.1,19.6,276.4,21.5"/>
	<g>
		<g>
			<defs>
				<path id="SVGID_3_" d="M184.7,22.9c-2.1-0.4-19.7-3.1-31.1,10.7l5.2,20.1c0,0,8.3-13.3,26.3-10v-0.1c2.1,0.4,19.4,3.4,30.8-10.4
					L210.7,13C210.7,13,202.7,26.1,184.7,22.9"/>
			</defs>
			<clipPath id="SVGID_4_">
				<use xlink:href="#SVGID_3_"  style="overflow:visible;"/>
			</clipPath>
			
				<linearGradient id="SVGID_5_" gradientUnits="userSpaceOnUse" x1="242.1621" y1="-527.0739" x2="244.3502" y2="-527.0739" gradientTransform="matrix(0 9.1394 -9.1394 0 -4632.2886 -2190.3662)">
				<stop  offset="0" style="stop-color:#00A651"/>
				<stop  offset="0.6196" style="stop-color:#005A27"/>
				<stop  offset="1" style="stop-color:#00A651"/>
			</linearGradient>
			<rect x="153.7" y="13" class="st6" width="62.3" height="40.7"/>
		</g>
	</g>
	<path class="st4" d="M214.3,18.5l-0.4-0.9l-8.1,9.8c0,0,0.6,0.1,0.9,0.2L214.3,18.5z"/>
	<path class="st4" d="M216.2,19.1l-0.4-0.9l-8.1,9.8c0,0,0.4,0.2,0.7,0.5L216.2,19.1z"/>
	<path class="st4" d="M217.6,20.4l-0.4-0.9l-8.1,9.7c0,0,0.3,0.4,0.5,0.8L217.6,20.4z"/>
	<path class="st4" d="M168,24.2l6.7,18.3H172l-2.3-6.3h-5.9l-2.3,6.3h-2.7l6.4-17.4L168,24.2z M168.8,33.7l-2-5.5l-2,5.5H168.8z"/>
	<path class="st7" d="M168,24.2l6.7,18.3H172l-2.3-6.3h-5.9l-2.3,6.3h-2.7l6.4-17.4L168,24.2z M168.8,33.7l-2-5.5l-2,5.5H168.8z"/>
	<path class="st4" d="M181.2,42.7c-1.7,0-3.1-0.5-4.2-1.6c-1-1-1.6-2.3-1.6-3.9v-8.3h2.6v8.2c0,0.8,0.3,1.5,0.9,2.1
		c0.6,0.6,1.4,0.9,2.3,0.9c0.8,0,1.5-0.3,2.1-0.9c0.6-0.6,0.9-1.3,0.9-2.1v-8.2h2.6v8.3c0,1.6-0.6,2.9-1.6,3.9
		C184.2,42.2,182.8,42.7,181.2,42.7"/>
	<path class="st7" d="M181.2,42.7c-1.7,0-3.1-0.5-4.2-1.6c-1-1-1.6-2.3-1.6-3.9v-8.3h2.6v8.2c0,0.8,0.3,1.5,0.9,2.1
		c0.6,0.6,1.4,0.9,2.3,0.9c0.8,0,1.5-0.3,2.1-0.9c0.6-0.6,0.9-1.3,0.9-2.1v-8.2h2.6v8.3c0,1.6-0.6,2.9-1.6,3.9
		C184.2,42.2,182.8,42.7,181.2,42.7z"/>
	<polygon class="st4" points="189.6,28.9 189.6,23.7 192.1,23.7 192.1,28.9 194.6,28.9 194.6,31.5 192.1,31.5 192.1,42.5 
		189.6,42.5 189.6,31.5 187.1,31.5 187.1,28.9 	"/>
	<polygon class="st7" points="189.6,28.9 189.6,23.7 192.1,23.7 192.1,28.9 194.6,28.9 194.6,31.5 192.1,31.5 192.1,42.5 
		189.6,42.5 189.6,31.5 187.1,31.5 187.1,28.9 	"/>
	<path class="st4" d="M202.2,27.8c2.1,0,3.9,0.7,5.3,2.2c1.5,1.5,2.2,3.2,2.2,5.3s-0.7,3.8-2.2,5.3s-3.2,2.2-5.3,2.2
		s-3.8-0.7-5.3-2.2s-2.2-3.3-2.2-5.3c0-2.1,0.7-3.9,2.2-5.3C198.3,28.5,200.1,27.8,202.2,27.8 M198.7,31.9c-1,1-1.4,2.1-1.4,3.5
		c0,1.3,0.5,2.5,1.4,3.5c1,1,2.1,1.4,3.5,1.4s2.5-0.5,3.5-1.4c1-1,1.4-2.1,1.4-3.5s-0.5-2.5-1.4-3.5c-1-1-2.1-1.4-3.5-1.4
		S199.7,30.9,198.7,31.9"/>
	<path class="st7" d="M202.2,27.8c2.1,0,3.9,0.7,5.3,2.2c1.5,1.5,2.2,3.2,2.2,5.3s-0.7,3.8-2.2,5.3s-3.2,2.2-5.3,2.2
		s-3.8-0.7-5.3-2.2s-2.2-3.3-2.2-5.3c0-2.1,0.7-3.9,2.2-5.3C198.3,28.5,200.1,27.8,202.2,27.8z M198.7,31.9c-1,1-1.4,2.1-1.4,3.5
		c0,1.3,0.5,2.5,1.4,3.5c1,1,2.1,1.4,3.5,1.4s2.5-0.5,3.5-1.4c1-1,1.4-2.1,1.4-3.5s-0.5-2.5-1.4-3.5c-1-1-2.1-1.4-3.5-1.4
		S199.7,30.9,198.7,31.9z"/>
	<g>
		<g>
			<defs>
				<path id="SVGID_6_" d="M188.3,43.6c-5.1-0.6-10.6-1.5-18.1,0.9c-7.5,2.5-11.4,9.1-11.4,9.1l2.7,9.9c0,0,4.5-6.7,11.9-9.4
					c7.5-2.7,11.7-1,16.8-0.4c4.8,0.5,18-0.6,28.5-10.8l-3-10.3C209,43.2,193.1,44.2,188.3,43.6"/>
			</defs>
			<clipPath id="SVGID_7_">
				<use xlink:href="#SVGID_6_"  style="overflow:visible;"/>
			</clipPath>
			
				<linearGradient id="SVGID_8_" gradientUnits="userSpaceOnUse" x1="148.0015" y1="-521.4193" x2="150.1896" y2="-521.4193" gradientTransform="matrix(0.5681 3.5978 -3.5978 0.5681 -1771.4426 -189.6502)">
				<stop  offset="0" style="stop-color:#ED1C24"/>
				<stop  offset="4.294480e-02" style="stop-color:#ED1C24"/>
				<stop  offset="0.5031" style="stop-color:#94070A"/>
				<stop  offset="0.9877" style="stop-color:#94070A"/>
				<stop  offset="1" style="stop-color:#94070A"/>
			</linearGradient>
			<polygon class="st8" points="217.3,23.4 223.6,62.8 160.3,72.8 154.1,33.3 			"/>
		</g>
	</g>
	<polygon class="st4" points="168.5,48.2 168.6,48.5 166.7,49.6 167.8,51.7 169.8,50.6 170,50.9 168,52 169.4,54.5 169.1,54.6 
		166.2,49.4 	"/>
	<polygon class="st9" points="168.5,48.2 168.6,48.5 166.7,49.6 167.8,51.7 169.8,50.6 170,50.9 168,52 169.4,54.5 169.1,54.6 
		166.2,49.4 	"/>
	<path class="st4" d="M173,50.5C173,50.6,173,50.6,173,50.5l-1.1,0.3l0.6,1.9l-0.3,0.1l-1.8-5.6l1.5-0.5c0.5-0.1,0.9,0,1.3,0.2
		c0.5,0.2,0.8,0.6,1,1.1s0.1,1-0.1,1.5c-0.2,0.3-0.4,0.6-0.7,0.8l1.9,1.6l-0.4,0.1L173,50.5z M170.9,47.5l1,3l1-0.3
		c0.4-0.1,0.7-0.4,0.9-0.8c0.2-0.4,0.2-0.8,0.1-1.2c-0.1-0.4-0.4-0.7-0.8-0.9c-0.4-0.2-0.8-0.2-1.2-0.1L170.9,47.5z"/>
	<path class="st9" d="M173,50.5C173,50.6,173,50.6,173,50.5l-1.1,0.3l0.6,1.9l-0.3,0.1l-1.8-5.6l1.5-0.5c0.5-0.1,0.9,0,1.3,0.2
		c0.5,0.2,0.8,0.6,1,1.1s0.1,1-0.1,1.5c-0.2,0.3-0.4,0.6-0.7,0.8l1.9,1.6l-0.4,0.1L173,50.5z M170.9,47.5l1,3l1-0.3
		c0.4-0.1,0.7-0.4,0.9-0.8c0.2-0.4,0.2-0.8,0.1-1.2c-0.1-0.4-0.4-0.7-0.8-0.9c-0.4-0.2-0.8-0.2-1.2-0.1L170.9,47.5z"/>
	<polygon class="st4" points="178.8,45.5 178.8,45.8 176.2,46.1 176.5,48.6 179.1,48.3 179.1,48.6 176.5,48.9 176.8,51.4 
		179.4,51.1 179.4,51.4 176.5,51.7 175.8,45.8 	"/>
	<polygon class="st9" points="178.8,45.5 178.8,45.8 176.2,46.1 176.5,48.6 179.1,48.3 179.1,48.6 176.5,48.9 176.8,51.4 
		179.4,51.1 179.4,51.4 176.5,51.7 175.8,45.8 	"/>
	<path class="st4" d="M185.5,50.8l0.2,0.2c-0.6,0.5-1.3,0.7-2.1,0.6c-0.8-0.1-1.5-0.4-2.1-1c-0.5-0.6-0.8-1.4-0.7-2.2s0.4-1.5,1-2.1
		c0.6-0.5,1.4-0.8,2.2-0.7s1.4,0.4,2,0.9l-0.3,0.2c-0.5-0.5-1-0.8-1.7-0.8c-0.7-0.1-1.4,0.2-2,0.6c-0.6,0.5-0.9,1.1-0.9,1.8
		c-0.1,0.7,0.2,1.4,0.6,2c0.5,0.6,1.1,0.9,1.8,0.9C184.3,51.3,184.9,51.2,185.5,50.8"/>
	<path class="st9" d="M185.5,50.8l0.2,0.2c-0.6,0.5-1.3,0.7-2.1,0.6c-0.8-0.1-1.5-0.4-2.1-1c-0.5-0.6-0.8-1.4-0.7-2.2s0.4-1.5,1-2.1
		c0.6-0.5,1.4-0.8,2.2-0.7s1.4,0.4,2,0.9l-0.3,0.2c-0.5-0.5-1-0.8-1.7-0.8c-0.7-0.1-1.4,0.2-2,0.6c-0.6,0.5-0.9,1.1-0.9,1.8
		c-0.1,0.7,0.2,1.4,0.6,2c0.5,0.6,1.1,0.9,1.8,0.9C184.3,51.3,184.9,51.2,185.5,50.8z"/>
	<path class="st4" d="M190.9,46.2h0.3l-0.1,4.2c-0.1,0.5-0.3,0.8-0.6,1.1c-0.4,0.4-0.8,0.5-1.4,0.5c-0.5,0-1-0.2-1.4-0.6
		c-0.4-0.4-0.5-0.8-0.5-1.4l0.1-4h0.3l-0.1,4c0,0.4,0.1,0.8,0.4,1.1c0.3,0.3,0.7,0.5,1.1,0.5c0.4,0,0.8-0.1,1.1-0.4
		c0.3-0.3,0.5-0.7,0.5-1.1L190.9,46.2z"/>
	<path class="st9" d="M190.9,46.2h0.3l-0.1,4.2c-0.1,0.5-0.3,0.8-0.6,1.1c-0.4,0.4-0.8,0.5-1.4,0.5c-0.5,0-1-0.2-1.4-0.6
		c-0.4-0.4-0.5-0.8-0.5-1.4l0.1-4h0.3l-0.1,4c0,0.4,0.1,0.8,0.4,1.1c0.3,0.3,0.7,0.5,1.1,0.5c0.4,0,0.8-0.1,1.1-0.4
		c0.3-0.3,0.5-0.7,0.5-1.1L190.9,46.2z"/>
	<polygon class="st4" points="195.5,45.8 195.6,46.1 192.9,46.3 193.1,48.7 195.7,48.6 195.8,48.9 193.1,49.1 193.3,51.5 
		195.9,51.3 196,51.7 193,51.9 192.6,46 	"/>
	<polygon class="st9" points="195.5,45.8 195.6,46.1 192.9,46.3 193.1,48.7 195.7,48.6 195.8,48.9 193.1,49.1 193.3,51.5 
		195.9,51.3 196,51.7 193,51.9 192.6,46 	"/>
	<polygon class="st4" points="197.3,45.6 202,50.6 201.2,45.1 201.6,45.1 202.4,50.9 201.9,51 197.3,46.2 198.1,51.5 197.7,51.6 
		196.9,45.7 	"/>
	<polygon class="st9" points="197.3,45.6 202,50.6 201.2,45.1 201.6,45.1 202.4,50.9 201.9,51 197.3,46.2 198.1,51.5 197.7,51.6 
		196.9,45.7 	"/>
	<polygon class="st4" points="204.2,44.6 205.9,49.9 205.6,50 203.9,44.7 202.5,45.2 202.4,44.9 205.5,43.8 205.6,44.1 	"/>
	<polygon class="st9" points="204.2,44.6 205.9,49.9 205.6,50 203.9,44.7 202.5,45.2 202.4,44.9 205.5,43.8 205.6,44.1 	"/>
	<polygon class="st4" points="208.9,42 209,42.3 206.7,43.6 207.9,45.7 210.2,44.5 210.4,44.8 208.1,46 209.3,48.2 211.6,46.9 
		211.7,47.2 209.1,48.6 206.3,43.5 	"/>
	<polygon class="st9" points="208.9,42 209,42.3 206.7,43.6 207.9,45.7 210.2,44.5 210.4,44.8 208.1,46 209.3,48.2 211.6,46.9 
		211.7,47.2 209.1,48.6 206.3,43.5 	"/>
	<path class="st4" d="M357.3,22.3c-1.8,0-3,0.8-3.7,1.8c-1.2-1.1-3.1-2-6.1-2c-2.4,0-4.3,0.5-5.9,1.5c-1.2,0.7-2.4,2.2-2.4,4.2
		c0,0.3,0,0.7,0.1,1c0,0,0,0.1,0,0.2v0.1c0.1,0.5,0.4,0.9,0.6,1.2c0,0,0,0.1,0.1,0.1c0.2,0.3,0.5,0.5,0.8,0.7c0,0,0.1,0,0.1,0.1
		c0.5,0.3,1.2,0.4,1.8,0.4h0.1c0.1,0,0.3,0,0.5,0c-0.8,0.4-1.5,0.7-2,1.1l0,0c-3.4,2.2-4.1,4.9-4.1,6.8c0,0.3,0,0.5,0.1,0.8
		c-0.3,0-0.6-0.1-1-0.1h-2.4c-5,0-9.1,4.1-9.1,9.1s4.1,9.1,9.1,9.1h30.8h0.1c0.1,0,0.2,0,0.3,0c1.1,0,3.6,0,4.1,0h34.2
		c2.3,0,4.5-0.9,6.2-2.4s2.7-3.6,2.9-5.9c0-0.1,0-0.1,0-0.2v-1.3c0-0.1,0-0.1,0-0.2c-0.2-2.3-1.2-4.4-2.9-5.9
		c-1.7-1.6-3.9-2.4-6.2-2.4h-2.9c1-1.8,1.5-3.9,1.5-6.2c0-3.5-1.1-6.3-3.3-8.5c-2.2-2.2-4.9-3.3-8.2-3.3c-1.6,0-3.1,0.3-4.4,0.8l0,0
		c-0.3-0.5-0.8-0.8-1.3-0.9c-0.8-0.2-1.6-0.3-2.3-0.3c-1.4,0-2.6,0.3-3.5,0.8v-2.8c0-1-0.4-1.7-0.8-2l-0.1-0.1
		c-0.4-0.4-1-0.6-1.6-0.6c-0.1,0-0.3,0-0.4,0s-0.2,0-0.3,0.1c-3.4,1.2-4.6,4.2-4.7,6.2c-0.8-0.6-1.8-1-3-1
		C368.1,22.3,357.3,22.3,357.3,22.3z"/>
	<path class="st10" d="M403.4,42.2h-3.3c0,0-0.1,0-0.2,0c-2.6,0-2.7,1.2-2.7,1.2l0,0l0,0h6.2c3.2,0,5.8,2.6,5.8,5.8
		s-2.6,5.8-5.8,5.8H372l0,0c-2.2,0-2.6,0.9-2.7,1.2v0.1h34.2c3.7,0,6.7-2.8,7-6.4v-1.3C410.1,45,407.1,42.2,403.4,42.2"/>
	<path class="st11" d="M328.2,49.2c0-3.2,2.6-5.8,5.8-5.8h5.1l0,0l0,0c0,0-0.1-1.2-2.7-1.2c-0.1,0-0.1,0-0.2,0H334
		c-3.9,0-7.1,3.2-7.1,7.1s3.2,7.1,7.1,7.1h30.8c0.1,0,0.2,0,0.4,0c2.5,0,2.7-1.1,2.7-1.2l0,0H334C330.8,55,328.2,52.4,328.2,49.2"/>
	<path class="st10" d="M340.5,52.8h1c0.1,0,0.2-0.1,0.2-0.2v-6.5c0-0.1-0.1-0.2-0.2-0.2h-0.9c-0.1,0-0.1,0-0.2,0.1l-2.4,2.9
		l-2.5-2.9c0-0.1-0.1-0.1-0.2-0.1h-0.9c-0.1,0-0.2,0.1-0.2,0.2v6.5c0,0.1,0.1,0.2,0.2,0.2h1c0.1,0,0.2-0.1,0.2-0.2v-4.2l2,2.4
		c0,0.1,0.1,0.1,0.2,0.1h0.2c0.1,0,0.1,0,0.2-0.1l2-2.4v4.2C340.2,52.7,340.3,52.8,340.5,52.8"/>
	<path class="st10" d="M351.7,47.2c0.1,0,0.2-0.1,0.2-0.2v-0.9c0-0.1-0.1-0.2-0.2-0.2h-5c-0.1,0-0.2,0.1-0.2,0.2v6.5
		c0,0.1,0.1,0.2,0.2,0.2h5c0.1,0,0.2-0.1,0.2-0.2v-0.9c0-0.1-0.1-0.2-0.2-0.2h-3.8V50h1.5c0.1,0,0.2-0.1,0.2-0.2v-0.9
		c0-0.1-0.1-0.2-0.2-0.2h-1.5v-1.3h3.8V47.2z"/>
	<path class="st10" d="M380,45.8h-1.1c-0.1,0-0.2,0.1-0.2,0.1l-2.7,6.5c0,0.1,0,0.2,0,0.2c0,0.1,0.1,0.1,0.2,0.1h1
		c0.1,0,0.2-0.1,0.2-0.2l0.5-1.3h2.9l0.5,1.3c0,0.1,0.1,0.2,0.2,0.2h1c0.1,0,0.2,0,0.2-0.1s0.1-0.1,0-0.2l-2.6-6.5
		C380.2,45.9,380.1,45.8,380,45.8 M378.4,50.1l1-2.4l1,2.4H378.4z"/>
	<path class="st10" d="M387,45.8c-0.1,0-0.2,0.1-0.2,0.2v6.5c0,0.1,0.1,0.2,0.2,0.2h2.6c2.2,0,3.6-1.4,3.6-3.5s-1.4-3.5-3.6-3.5
		L387,45.8L387,45.8z M391.7,49.3c0,1.3-0.8,2.1-2.1,2.1h-1.4v-4.3h1.4C390.9,47.2,391.7,48,391.7,49.3"/>
	<path class="st10" d="M400.5,52.9c2,0,3.6-1.5,3.6-3.6c0-2-1.5-3.6-3.6-3.6c-2,0-3.6,1.5-3.6,3.6C396.9,51.3,398.4,52.9,400.5,52.9
		 M400.5,47.1c1.2,0,2.1,0.9,2.1,2.2c0,1.2-0.9,2.2-2.1,2.2s-2.1-0.9-2.1-2.2C398.4,48.1,399.2,47.1,400.5,47.1"/>
	<path class="st10" d="M362,48.1c0-1.7-1.4-2.3-2.7-2.3h-2.8c-0.1,0-0.2,0.1-0.2,0.2v6.5c0,0.1,0.1,0.2,0.2,0.2h1
		c0.1,0,0.2-0.1,0.2-0.2v-2.1h0.7l0,0L359,51l0.1,0.1l0,0l1.4,1.5c0.1,0.1,0.1,0.1,0.3,0.1c0,0,0,0,0.1,0h1.2l0,0
		c0.1-0.1,0.1-0.3,0-0.3l-2-2.1C361.2,50.1,362,49.2,362,48.1 M359.4,49.1h-1.7v-2h1.7c0.7,0,1.1,0.4,1.1,1
		C360.4,48.8,359.9,49.1,359.4,49.1"/>
	<path class="st10" d="M366,49.3c0,2,1.5,3.6,3.6,3.6c1.1,0,2-0.4,2.7-1.2v-0.1l0,0l0,0l-0.8-0.8c-0.1,0-0.1-0.1-0.2-0.1v-0.1
		l-0.1,0.1c-0.4,0.5-1,0.7-1.6,0.7c-1.2,0-2.1-0.9-2.1-2.2c0-1.2,0.9-2.2,2.1-2.2c0.6,0,1.1,0.2,1.5,0.6l0,0l0,0c0.1,0,0.1,0,0.2,0
		l0,0l0.8-0.8l0.1-0.1c0-0.1,0-0.1-0.1-0.1c-0.7-0.7-1.6-1.1-2.6-1.1C367.6,45.7,366,47.3,366,49.3"/>
	<path class="st11" d="M340.8,42.6c0.9,0.9,2,1.3,3.3,1.3c1.2,0,2.4-0.4,3.7-1.1c0.6-0.4,1.4-0.9,2.3-1.6c0.1,0.6,0.3,1.1,0.6,1.5
		c0.4,0.5,0.8,0.8,1.4,1c0.2,0.1,0.5,0.1,0.7,0.1l0,0c1.2,0,2.1-0.8,2.5-2c0.1-0.1,0-0.3-0.2-0.4c-0.6-0.3-1-0.8-1.1-1.5
		c0-0.3-0.1-0.6-0.1-1v-8c0-1.8-0.3-3.2-0.8-4.1c-1-1.8-2.9-2.7-5.7-2.7c-2,0-3.6,0.4-4.8,1.1c-0.7,0.4-1.5,1.3-1.5,2.5
		c0,0.2,0,0.4,0.1,0.6c0,0,0,0,0,0.1c0.1,0.2,0.2,0.4,0.3,0.6c0.1,0.1,0.2,0.2,0.4,0.3c0.2,0.1,0.6,0.2,0.9,0.2s0.8-0.1,1.1-0.3
		c0,0,0,0,0.1,0c0.1-0.1,0.2-0.2,0.2-0.4l0,0c0-0.2,0-0.3,0-0.5c0-0.6,0.1-1.2,0.6-1.7c0.1-0.1,0.3-0.2,0.5-0.3
		c0.2-0.1,0.3-0.2,0.5-0.2c0.4-0.2,0.9-0.2,1.3-0.2c1.3,0,2.2,0.4,2.6,1.2c0.3,0.5,0.4,1.4,0.4,2.7v1.5c-3.7,1.3-6.2,2.4-7.4,3.2
		c-2.1,1.3-3.1,3-3.1,5.1C339.4,40.7,339.8,41.8,340.8,42.6 M346.4,34.4c0.9-0.5,2.1-1,3.4-1.5v5.7c0,0.6-0.4,1.2-1.1,1.6
		c-0.8,0.5-1.6,0.7-2.4,0.7c-0.6,0-1.1-0.2-1.6-0.5c-0.7-0.5-1.1-1.3-1.1-2.4C343.6,36.7,344.5,35.6,346.4,34.4"/>
	<path class="st10" d="M383.9,27.1c-1.7,1.9-2.6,4.2-2.6,6.8c0,2.9,0.9,5.3,2.7,7.2c1.8,1.9,4.1,2.9,6.7,2.9c2.7,0,5-1,6.7-3
		s2.6-4.3,2.6-7c0-2.9-0.9-5.3-2.7-7c-1.8-1.8-4.1-2.7-6.8-2.7C387.9,24.3,385.6,25.2,383.9,27.1 M390.6,26.4c2.7,0,5,3.5,5,7.7
		c0,4.3-2.2,7.7-5,7.7c-2.7,0-5-3.5-5-7.7C385.7,29.9,387.9,26.4,390.6,26.4"/>
	<path class="st10" d="M355.1,26.3c0.6,0.2,1,0.8,1.1,1.5v10.4c0,2,0.6,3.5,1.7,4.3c1.1,0.9,2.2,1.3,3.4,1.3c1.3,0,2.6-0.4,3.8-1.3
		c0.6-0.4,1.3-1.1,2.1-1.9v0.2c0.1,0.7,0.3,1.3,0.6,1.8c0.3,0.5,0.8,0.8,1.3,1c0.2,0.1,0.4,0.1,0.7,0.1l0,0c1.1,0,2.1-0.8,2.5-2
		c0-0.2,0-0.3-0.2-0.4c-0.6-0.3-1.1-0.8-1.1-1.5c0-0.3,0-0.6,0-1V27.4l0,0v-0.5l0,0c0-1-0.9-2.5-2.8-2.5c-2.1,0-2.5,1.5-2.5,1.6l0,0
		c0,0.1,0.1,0.3,0.2,0.3c0.9,0.3,1.2,0.8,1.2,1.5l0,0v10.9c-0.5,0.6-1,1-1.4,1.3c-0.8,0.6-1.7,0.9-2.6,0.9c-1.3,0-2.1-0.5-2.6-1.4
		c-0.2-0.5-0.4-1.2-0.4-2.1v-6.5V30v-3v-0.1l0,0c0-1-0.8-2.5-2.7-2.5c-2.1,0-2.4,1.5-2.4,1.6l0,0C354.9,26.1,355,26.3,355.1,26.3"/>
	<path class="st10" d="M384.4,24c-6.2-1.4-6.9,4.2-6.9,4.2C383.1,29.3,384.4,24,384.4,24"/>
	<path class="st10" d="M377.4,43.9c0.1,0,0.3,0,0.5,0c1.4,0,2.6-0.8,3.2-1.9c0.3-0.6,0.4-1.3,0.4-1.6c0,0,0-0.1,0-0.2c0,0,0,0-0.1,0
		l0,0c-0.7,0.3-1.1,0.6-2,0.6c-1.9,0-2.4-1.1-2.4-3.4v-9.5v-3.3v-4.8c0-0.3-0.1-0.5-0.2-0.6s-0.2-0.1-0.3-0.1
		c-3.4,1.1-3.3,4.8-3.3,4.8V24v0.6v3.2v9.3C373.2,41.1,374.4,43.5,377.4,43.9"/>
</g>
<g>
	<g>
		<g>
			<g>
				<g>
					<g>
						<g>
							<g>
								
									<radialGradient id="SVGID_10_" cx="454.5475" cy="54.4914" r="53.2792" gradientTransform="matrix(1 0 0 -1 0 78)" gradientUnits="userSpaceOnUse">
									<stop  offset="0" style="stop-color:#81D1F4"/>
									<stop  offset="5.932254e-02" style="stop-color:#7BCFF3"/>
									<stop  offset="0.1383" style="stop-color:#6AC8F0"/>
									<stop  offset="0.2284" style="stop-color:#4EBEEA"/>
									<stop  offset="0.326" style="stop-color:#28AFE3"/>
									<stop  offset="0.3708" style="stop-color:#14A7DF"/>
									<stop  offset="0.4361" style="stop-color:#119ED9"/>
									<stop  offset="0.6132" style="stop-color:#0A8CCB"/>
									<stop  offset="0.7977" style="stop-color:#0681C4"/>
									<stop  offset="1" style="stop-color:#057DC1"/>
								</radialGradient>
								<path id="SVGID_9_" class="st12" d="M491.7,15.7H447v44.8h44.7V45.8c0.2-0.2,0.3-0.6,0.3-1c0-0.5-0.1-0.7-0.3-1V15.7z"/>
							</g>
						</g>
					</g>
				</g>
			</g>
			<g>
				<path class="st4" d="M447,38.4h2.1l0.5-1.2h1.1l0.5,1.2h4.2v-0.9l0.4,0.9h2.2l0.4-0.9v0.9h10.5v-1.9h0.2c0.1,0,0.2,0,0.2,0.3
					v1.7h5.4v-0.4c0.4,0.2,1.1,0.4,2,0.4h2.3l0.5-1.2h1.1l0.5,1.2h4.4v-1.1l0.7,1.1h3.5v-7.3h-3.5v0.9l-0.5-0.9h-3.6v0.9l-0.4-0.9
					h-4.8c-0.8,0-1.5,0.1-2.1,0.4v-0.4h-3.3v0.4c-0.4-0.3-0.9-0.4-1.4-0.4h-12.2l-0.8,1.9l-0.8-1.9h-3.8v0.9l-0.4-0.9h-3.3l-1.5,3.5
					v3.7H447z M488.5,37.4h-1.8l-2.4-4v4h-2.6l-0.5-1.2h-2.6l-0.5,1.2h-1.5c-0.6,0-1.4-0.1-1.8-0.6s-0.7-1.1-0.7-2
					c0-0.8,0.1-1.5,0.7-2c0.4-0.4,1-0.6,1.9-0.6h1.2v1.1h-1.2c-0.5,0-0.7,0.1-1,0.3c-0.2,0.2-0.4,0.6-0.4,1.2c0,0.6,0.1,1,0.3,1.2
					c0.2,0.2,0.5,0.3,0.9,0.3h0.6l1.8-4.1h1.9l2.1,5v-5h1.9l2.2,3.7v-3.7h1.3v5.2H488.5z M473.7,37.4h-1.3v-5.3h1.3V37.4z
					 M471.7,33.6c0,0.8-0.6,1.3-0.9,1.4c0.3,0.1,0.5,0.3,0.6,0.4c0.2,0.3,0.2,0.5,0.2,1v1h-1.3v-0.7c0-0.3,0-0.8-0.2-1
					s-0.5-0.2-0.9-0.2h-1.4v1.9h-1.3v-5.3h2.9c0.6,0,1.1,0,1.5,0.3C471.4,32.6,471.7,33,471.7,33.6z M465.7,37.4h-4.2v-5.3h4.2v1.1
					h-2.9v0.9h2.9v1.1h-2.9v1h2.9V37.4z M460.6,37.4h-1.3v-4.1l-1.8,4.1h-1.1l-1.8-4.1v4.1H452l-0.5-1.2h-2.6l-0.5,1.2H447l2.2-5.3
					h1.9l2.1,5v-5h2.1l1.6,3.6l1.5-3.6h2.1L460.6,37.4L460.6,37.4z M480.9,35.1L480,33l-0.9,2.1H480.9z M470,34.3
					c-0.2,0.1-0.4,0.1-0.6,0.1h-1.5v-1.2h1.6c0.2,0,0.5,0,0.6,0.1c0.2,0.1,0.3,0.2,0.3,0.5C470.3,34,470.2,34.2,470,34.3z
					 M451.1,35.1l-0.9-2.1l-0.9,2.1H451.1z"/>
				<path class="st4" d="M471.4,42.9c0,1.5-1.1,1.8-2.2,1.8h-1.6v1.8h-2.4l-1.6-1.7l-1.6,1.7h-5v-5.3h5l1.5,1.7l1.6-1.7h4
					C470.3,41.2,471.4,41.5,471.4,42.9z M461.4,45.4h-3.1v-1h2.8v-1.1h-2.8v-0.9h3.2l1.4,1.5L461.4,45.4z M466.4,46l-1.9-2.1
					l1.9-2.1V46z M469.3,43.6h-1.6v-1.3h1.6c0.4,0,0.8,0.2,0.8,0.6C470,43.4,469.7,43.6,469.3,43.6z M477.7,41.2h4.2v1.1h-3v0.9h2.9
					v1.1H479v1h3v1.1h-4.2L477.7,41.2L477.7,41.2z M476.1,44c0.3,0.1,0.5,0.3,0.6,0.4c0.2,0.3,0.2,0.5,0.2,1v1h-1.3v-0.6
					c0-0.3,0-0.8-0.2-1s-0.5-0.2-0.9-0.2h-1.3v1.9H472v-5.3h2.9c0.6,0,1.1,0,1.5,0.3c0.4,0.2,0.6,0.6,0.6,1.2
					C477,43.5,476.5,43.9,476.1,44z M475.4,43.4c-0.2,0.1-0.4,0.1-0.6,0.1h-1.5v-1.2h1.6c0.2,0,0.4,0,0.6,0.1s0.3,0.3,0.3,0.5
					C475.6,43.1,475.5,43.3,475.4,43.4z M486.7,43.7c0.3,0.3,0.4,0.6,0.4,1.1c0,1.1-0.7,1.7-2,1.7h-2.4v-1.1h2.4
					c0.2,0,0.4,0,0.5-0.1s0.1-0.2,0.1-0.3c0-0.2-0.1-0.3-0.2-0.4c-0.1-0.1-0.2-0.1-0.4-0.1c-1.2,0-2.6,0-2.6-1.6
					c0-0.8,0.5-1.6,1.8-1.6h2.5v1.1h-2.3c-0.2,0-0.4,0-0.5,0.1s-0.2,0.2-0.2,0.4s0.1,0.3,0.3,0.4c0.1,0,0.3,0.1,0.5,0.1h0.7
					C486,43.3,486.4,43.4,486.7,43.7z M491.7,45.8c-0.3,0.5-0.9,0.7-1.7,0.7h-2.4v-1.1h2.4c0.2,0,0.4,0,0.5-0.1s0.2-0.2,0.2-0.3
					c0-0.2-0.1-0.3-0.2-0.4c-0.1-0.1-0.2-0.1-0.4-0.1c-1.2,0-2.7,0-2.7-1.6c0-0.8,0.5-1.6,1.8-1.6h2.5v-1.1h-2.3
					c-0.7,0-1.2,0.2-1.6,0.4v-0.4h-3.4c-0.5,0-1.2,0.1-1.5,0.4v-0.4h-6.1v0.4c-0.5-0.3-1.3-0.4-1.7-0.4H471v0.4
					c-0.4-0.4-1.2-0.4-1.8-0.4h-4.5l-1,1.1l-1-1.1h-6.8v7.3h6.6l1.1-1.1l1,1.1h4.1v-1.7h0.4c0.5,0,1.2,0,1.7-0.3v2h3.4v-1.9h0.2
					c0.2,0,0.2,0,0.2,0.2v1.7h10.3c0.6,0,1.3-0.2,1.7-0.5v0.5h3.3c0.7,0,1.3-0.1,1.9-0.3v-1.4H491.7z M491.7,42.3h-2.3
					c-0.2,0-0.4,0-0.5,0.1s-0.2,0.2-0.2,0.4s0.1,0.3,0.3,0.4c0.1,0,0.3,0.1,0.5,0.1h0.7c0.7,0,1.2,0.1,1.4,0.4l0.1,0.1V42.3z"/>
			</g>
		</g>
		<g>
			<g>
				<g>
					<path class="st13" d="M444.2,59.7h-0.4c0-0.2-0.1-0.5-0.1-0.5c0-0.1,0-0.3-0.3-0.3h-0.6v0.8h-0.4v-2h0.9c0.3,0,0.7,0.1,0.7,0.6
						c0,0.3-0.1,0.4-0.2,0.5c0.1,0,0.2,0.1,0.2,0.4v0.3C444,59.6,444,59.6,444.2,59.7L444.2,59.7L444.2,59.7z M443.8,58.2
						c0-0.2-0.2-0.3-0.3-0.3h-0.6v0.6h0.5C443.6,58.5,443.8,58.5,443.8,58.2z M445.4,58.7c0-1.2-1-2.1-2.1-2.1
						c-1.2,0-2.1,0.9-2.1,2.1c0,1.2,0.9,2.1,2.1,2.1C444.4,60.8,445.4,59.9,445.4,58.7z M445.1,58.7c0,1-0.8,1.8-1.8,1.8
						s-1.8-0.8-1.8-1.8s0.8-1.8,1.8-1.8C444.3,56.9,445.1,57.7,445.1,58.7z"/>
				</g>
			</g>
		</g>
	</g>
</g>
<g>
	<title>Artboard 2</title>
	<path class="st14" d="M80.8,34.5L80.8,34.5c1.9-0.9,3.2-2.5,3.2-5.1c0-3.8-2.6-6.1-7.7-6.1h-9.6V47h9.8c6,0,8.4-2.7,8.4-6.9
		C84.8,37.1,83.4,35.3,80.8,34.5z M71.8,27.8h4.3c2,0,2.8,0.7,2.8,2.6S78.1,33,76.2,33h-4.4L71.8,27.8L71.8,27.8z M76.4,42.7h-4.7
		v-5.8h4.6c2.3,0,3.2,0.8,3.2,2.8C79.5,42,78.5,42.7,76.4,42.7z"/>
	<path class="st14" d="M99.4,23.3h-6.3L84.9,47h5.6l1.3-4.7h8.6l1.3,4.7h5.9L99.4,23.3z M93.1,37.9l2.4-8.1l0.7-2.5h0.1l0.6,2.5
		l2.3,8.1H93.1z"/>
	<path class="st14" d="M118.4,42.6c-4.3,0-5.8-1.7-5.8-7.6c0-5.6,1.5-7.3,5.8-7.3c1.8,0,3.9,0.3,5.1,0.8v-4.6
		c-1.7-0.6-3.5-0.9-5.4-1c-7.6,0-11,4.2-11,12.1c0,8.4,3.5,12.4,10.7,12.4c2,0,4-0.5,5.9-1.3v-4.6C121.9,42.2,120.2,42.6,118.4,42.6
		z"/>
	<path class="st14" d="M120.6,52.3c0-1.5,0.4-2,1.6-2c0.5,0,0.9,0.1,1.4,0.2v-1.2c-0.5-0.2-0.9-0.2-1.5-0.3c-2,0-3,1.1-3,3.3
		c0,2.3,0.9,3.4,2.9,3.4c0.6,0,1.1-0.1,1.6-0.3v-1.3c-0.4,0.2-0.9,0.3-1.4,0.3C121,54.3,120.6,53.9,120.6,52.3z"/>
	<path class="st14" d="M67.9,52.3c0-1.5,0.4-2,1.6-2c0.5,0,0.9,0.1,1.4,0.2v-1.2c-0.5-0.2-1-0.3-1.5-0.3c-2,0-3,1.1-3,3.3
		c0,2.3,0.9,3.4,2.9,3.4c0.6,0,1.1-0.1,1.6-0.3v-1.3c-0.4,0.2-0.9,0.3-1.4,0.3C68.4,54.3,67.9,53.9,67.9,52.3z"/>
	<path class="st14" d="M75.9,52.9c0.7-0.2,1.1-0.9,1.1-1.7c0-1.4-0.8-2-2.4-2h-2.4v6.4h1.4v-2.4h0.9l1.1,2.4h1.7L75.9,52.9z
		 M74.6,52.1h-0.9v-1.7h0.9c0.6,0,0.9,0.2,0.9,0.9S75.2,52.1,74.6,52.1z"/>
	<polygon class="st14" points="79.8,52.8 82.2,52.8 82.2,51.7 79.8,51.7 79.8,50.4 82.6,50.4 82.6,49.1 78.4,49.1 78.4,55.5 
		82.7,55.5 82.8,54.3 79.8,54.3 	"/>
	<path class="st14" d="M86.4,49.1H84v6.4h2.4c1.9,0,2.8-0.9,2.8-3.2C89.2,50.1,88.4,49.1,86.4,49.1z M86.4,54.3h-0.9v-3.8h0.9
		c1,0,1.4,0.4,1.4,1.9C87.7,53.9,87.3,54.3,86.4,54.3L86.4,54.3z"/>
	<path class="st14" d="M93,49.1c-2,0-2.8,1-2.8,3.3c0,2.3,0.9,3.3,2.8,3.3c2,0,2.8-1,2.8-3.3C95.8,50.1,95,49.1,93,49.1z M93,54.4
		c-1,0-1.3-0.4-1.3-2c0-1.6,0.3-2,1.3-2s1.3,0.4,1.3,2C94.3,54,93.9,54.4,93,54.4L93,54.4z"/>
	<polygon class="st14" points="100.4,52.9 100.2,53.5 100.1,53.5 99.9,52.9 98.4,49.1 96.8,49.1 96.8,55.5 98.1,55.5 98.1,52.3 
		98.1,51.6 98.1,51.6 98.4,52.2 99.7,55.5 100.6,55.5 102,52.2 102.2,51.6 102.2,51.6 102.2,52.3 102.2,55.5 103.5,55.5 103.5,49.1 
		101.9,49.1 	"/>
	<path class="st14" d="M108.3,49.1h-1.7l-2.2,6.4h1.5l0.4-1.3h2.3l0.4,1.3h1.6L108.3,49.1z M106.6,53.1l0.6-2.2l0.2-0.7h0l0.2,0.7
		l0.6,2.2H106.6z"/>
	<polygon class="st14" points="110.4,49.1 110.4,50.4 112.1,50.4 112.1,55.5 113.5,55.5 113.5,50.4 115.2,50.4 115.2,49.1 	"/>
	<polygon class="st14" points="116.3,55.5 117.8,55.5 117.8,53.6 117.8,49.1 116.3,49.1 	"/>
	<polygon class="st14" points="44.6,28.4 57.3,38.6 53.9,47 44.6,47 	"/>
	<polygon class="st14" points="42.8,22.4 20.8,28.3 20.8,38.3 42.8,28.8 	"/>
	<polygon class="st14" points="42.8,30.7 20.8,40.2 20.8,51.2 42.8,37.7 	"/>
	<polygon class="st14" points="36.8,55.5 51.3,55.5 51.3,48.7 43.9,48.7 	"/>
	<polygon class="st14" points="42.8,39.7 20.8,53.2 20.8,55.5 34.4,55.5 42.8,47.4 	"/>
</g>
</svg>
